<svg xmlns="http://www.w3.org/2000/svg" xmlns:xlink="http://www.w3.org/1999/xlink" width="181.711" height="48.418" viewBox="0 0 181.711 48.418">
  <defs>
    <linearGradient id="linear-gradient" x1="0.5" x2="0.5" y2="1" gradientUnits="objectBoundingBox">
      <stop offset="0" stop-color="#cba68b"/>
      <stop offset="0.542" stop-color="#ad827f"/>
      <stop offset="1" stop-color="#e6bea1"/>
    </linearGradient>
  </defs>
  <g id="グループ_41" data-name="グループ 41" transform="translate(-450.473 -2507.614)">
    <path id="パス_57" data-name="パス 57" d="M-43.908-8.12c.42-.035.84-.035.84.315.245.105.875-.175.84.175a13.53,13.53,0,0,0,6.4-1.19c.49.07.56-.315.84-.49.525.07.63-.245.98-.35a4.718,4.718,0,0,1,1.855-.98,29.528,29.528,0,0,1,2.87-3.045,5.349,5.349,0,0,1,1.155-1.995,5.319,5.319,0,0,1,1.015-2.52c.035-1.75.735-2.87.525-4.9a3.961,3.961,0,0,1-.525-1.68,9.912,9.912,0,0,1-1.505-1.68,4.917,4.917,0,0,1-1.5-.665h-2.7c-.245.035-.28.28-.49.35a17.948,17.948,0,0,0-5.74,3.675c-.455.035-.28.735-.84.7-.21.28-.42.56-.665.84a6.348,6.348,0,0,0-.84.84c-.42.105-.35.735-.84.84a8.5,8.5,0,0,1-1.505,1.68c0,.49-.385.595-.665.84-.245.805-.875,1.225-1.19,1.995-.35.21-.385.735-.665,1.015A32.669,32.669,0,0,0-48.6-10.325a4.592,4.592,0,0,0-.84,1.505c-.42.875-.77,1.645-1.19,2.38a10.376,10.376,0,0,0-1.33,2.345,1.662,1.662,0,0,0-.525,1.015c-.175.35-.63.455-.665.98-.63,1.015-1.61,2.52-1.33,3.885,0,.245-.035.56.315.49.28.525.77-.14,1.19,0a3.4,3.4,0,0,1,.665-1.015c.14-.98,1.085-1.12,1.015-2.345.245-.315.875-.245.84-.84.245-.035.14-.385.175-.665.315-.035.56-.1.665-.35.14-1.05,1.155-1.3,1.33-2.345.49.1.455-.525.525-.665.07-.21.56-.525.665-.665.14-.175.35-.35.49-.525.49-.735,1.05-1.4,1.54-2.17C-44.678-8.925-44.293-8.54-43.908-8.12Zm-.175-2.03c-.175-.805.7-.56.7-1.19.315-.28.77-.455.84-.98.735-.455,1.085-1.26,1.68-1.855.525-.595,1.365-1.015,1.68-1.855.63-.455,1.435-.84,1.505-2.03-.07-.385-.525-.35-.665-.665-.945.21-1.33.945-1.855,1.5-.875.21-.98,1.155-1.68,1.54-.315.805-1.085,1.155-1.505,1.82-.175.385-.56.595-.84.84a3.2,3.2,0,0,1-.84.7,21.5,21.5,0,0,1-1.19,2.17,2.413,2.413,0,0,0-.84.84c-.385.175-.28.84-.84.84.21-.63.735-.945.665-1.855a9.591,9.591,0,0,0,1.5-2.345,9.439,9.439,0,0,1,1.68-2.03,7.7,7.7,0,0,1,1.855-3.01c1.435-2.415,4.025-3.71,5.7-5.88.735-.1,1.05-.665,1.68-.84a5.433,5.433,0,0,1,1.54-.84.693.693,0,0,1,.49-.49,4.146,4.146,0,0,0,1.855,0,4.567,4.567,0,0,0,1.5.665c.315.56,1.3,1.61,1.33,2.52.035.21.28.98-.315,1.015.14.28.455.42.315.98-.245.735-.28,1.715-.84,2.2-.455,2.45-1.925,3.885-3.185,5.53a25.305,25.305,0,0,1-3.36,2.205,28.126,28.126,0,0,1-4.2,1.33C-41.423-9.345-43.208-9.275-44.083-10.15Zm19.46,2.17a8.1,8.1,0,0,0-1.155,2.1c-.1.21-.035.455-.175.665-.07.14-.42.21-.49.35a12.226,12.226,0,0,0-.525,1.19c0,1.155-.1,2.45.35,3.185a9.145,9.145,0,0,0,3.71.175,18.654,18.654,0,0,0,4.025-2.52c.42-.455.28-.77.7-.84-.1-.315.77-.805.98-1.015.7-1.015,1.61-1.645,2.03-3.01,0-.035.07-.105.63-.315.525-.21.175-.035.735-.245.28-.1.42-.14.49-.175a3.842,3.842,0,0,0,.84-1.47,2.526,2.526,0,0,0-1.435.07c-.49.175-.035.035-.525.14-.28.07-.455,0-.49-.07a7.174,7.174,0,0,0-.42-1.82c.035-.98-1.155-1.435-1.715-1.855-1.12,0-1.715.525-2.66.665a14.3,14.3,0,0,1-1.365,1.54c-.91.28-1.33,1.015-2.345,1.155a8.707,8.707,0,0,0-.84.665A7.832,7.832,0,0,1-24.623-7.98Zm6.58-3.255a6.513,6.513,0,0,1,1.19.14c.315.42.1,1.365.175,2.03a6.715,6.715,0,0,1-3.045.49c.07-.315-.14-.6-.175-.315-.455-.35.385-.84.49-1.19a1.579,1.579,0,0,0,1.19-.665C-18.288-11.025-18.078-11.025-18.043-11.235Zm-4.2,3.36c.56.14.875.56,1.33.84.455,0,.945-.07,1.19.14a5.89,5.89,0,0,0,2.38-.455c0,.56-.28.56-.525.98a5.346,5.346,0,0,0-1.155,1.015A10.426,10.426,0,0,0-20.038-4.2c-.665.105-.98.7-1.505,1.015-.21.105-.21.035-.35.175a6.824,6.824,0,0,1-1.68.84h-1.715c-.14-.875.35-1.12.35-1.855.665-.735,1.155-1.82,1.855-2.7.175-.245.245-.63.665-.665C-22.488-7.665-22.278-7.665-22.243-7.875ZM1.137-3.64c.28-.315.84-.49,1.085-.84,1.575-.8,2.205-1.855,1.82-2.94-.875.07-1.575.7-2.31.91-.6.35-.6.84-1.3,1.12-.91.525-1.75.91-2.66,1.4A8.23,8.23,0,0,1-5.408-2.835c-.455.385-1.505.98-2.205.525.14-1.05,1.085-1.3,1.505-2.03.77-.49,1.575-2.2,2.45-2.555.665-.49.84-1.54,1.715-1.855.28-.945,1.33-1.12,1.505-2.17-.385-.245-.14-1.085-.84-1.015-.63-.175-.525.35-.84.49a8.094,8.094,0,0,1-.84.7c-.14.35-.63.35-.665.84-.35.14-.735.28-.84.665-1.155.84-2.38,2.975-3.465,3.885a9.264,9.264,0,0,0-1.75,2.52,2.645,2.645,0,0,0-.1,1.54c-.035.56.56.525.665.98.735-.175,1.645,0,2.52-.14.07-.035.42-.315.49-.35.35-.105.665.21.84-.175.91-.385,2.03-.56,2.87-1.015.035-.21,1.12-.735,1.19-.49C-.823-3.22.682-3.115,1.137-3.64Zm3.01-16c.56.28,1.75.595,2.2,0a6.7,6.7,0,0,0-.525-2.52C4.112-22.47,4.112-21.07,4.147-19.635ZM24.8-5.5c.035-.14.6-.35.91-.35.525-.035.91-.7.735-2.345a4.552,4.552,0,0,0-2.2.945c-.245.105-.735.525-1.015.63a5.036,5.036,0,0,1-.875.77,3.553,3.553,0,0,1-1.26.63C19.582-4.13,19.022-4.27,17.2-3.5c-.385.105-.385.28-.84.315-.28.245-.84,0-1.19.14-.385-.035-.735.8-1.015.35.35-.21.175-.945.665-1.015a5.611,5.611,0,0,0,.7-1.19,11.1,11.1,0,0,0,2.03-3.29c.455-.105.35-.77.84-.84-.035-.665.735-.525.665-1.19a1.986,1.986,0,0,0,.84-2.52c-.84-.455-2.275.245-2.87.525a26.64,26.64,0,0,1-2.87,1.68c-.175.1-.35.385-.525.49a8.273,8.273,0,0,1-1.33.84c-.315.175-.455.455-.84.35-.175.42-.665.56-.84,1.015-.455-.14-.245.315-.56.315-.245-.07-.42.665-.525.175h.175c0-.175.245-.245,0-.35.42-.7,1.015-3.78.42-4.34-.84-.14-1.225-.21-1.47.385-.175.42-.805,3.36-.945,3.955a43.118,43.118,0,0,1-2.38,4.165A4.791,4.791,0,0,1,4.322-2.2c-.28.525-.735.84-.665,1.68.455.63.665.07,1.54.175.385-.245.665-.6,1.015-.84.525-.105.455-.8,1.015-.84.735-.525.98-1.435,1.75-1.925a5.962,5.962,0,0,1,1.05-1.05,25.682,25.682,0,0,1,5.495-3.71c-.42.77-1.505,2.835-1.855,3.325a1.659,1.659,0,0,1-.35.35c-.035.035.035.28,0,.315-.14.21-.385.35-.49.525a5.758,5.758,0,0,0-.35.665c-.07.14-.28.07-.315.175-.14.21,0,.35-.175.49-.07.035.035.28,0,.35a3.646,3.646,0,0,0-.525,2c.77.8,2.065.385,3.045.35,1.365-.84,2.975-.945,4.27-1.855.63-.49.945-.35,1.54-.875.945-.42,1.085-.7,1.68-.91A14.485,14.485,0,0,0,24.8-5.5ZM40.827-4.13c-.49.07-1.12-.035-1.295.35a10.259,10.259,0,0,0-1.015.175c-.315.14-.525.385-.805.525-.035,0-.945.455-.98.49a4.636,4.636,0,0,1-1.925.77c-1.225.175-2.765.7-3.885.175-.035-.035,0-.14-.14-.175a3.369,3.369,0,0,1-1.015-.665c-.595-1.3-.035-2.38.175-3.71.42-.245.42-.8.665-1.155.21-.35.7-.56.665-1.015.91-.56.84-1.575,1.68-2.17.385-1.05,1.3-1.54,1.68-2.52.245-.1.875.175.84-.175.6-.7,1.435.07,1.855,0a4.33,4.33,0,0,0,1.015-.35,1.2,1.2,0,0,0,.98,0c1.155-.35,1.225.21,2.38-.315a4.851,4.851,0,0,0,1.68.14c.945-.35,1.61-.07,2.345-.49,1.085.1,1.715-.21,2.695-.175-.035.035.7-.07,1.575-.14.42-.525-.175-.805-.6-1.015-3.885.315-8.015.49-11.9.84-.35-.1-1.12.175-1.19-.175.56-1.925,2.03-2.905,2.87-4.55-.385-.315.175-1.505-.525-1.505-1.155-.14-1.085.91-1.68,1.33-.63.91-1.155,1.855-1.855,2.695-.35.49-1.085,1.05-1.33,1.365-.1.14-.07.35-.175.49a1.2,1.2,0,0,1-.665.49c-1.68.175-3.29.42-5.04.525-.245.35-1.015.21-1.33.49-.315.315-1.26,0-1.19.665.35,1.155,1.785.63,2.87.525.77-.1,1.61-.28,1.995-.35.525-.07,1.12-.105,1.365.175a37.365,37.365,0,0,0-2.38,4.2c-.49.455-.735,1.995-1.155,2.87a6.429,6.429,0,0,0-.35,2.66c.175,1.19,1.085,1.82,1.5,2.52.455.14.98.175,1.19.525a10.257,10.257,0,0,1,3.01.175,2.925,2.925,0,0,1,1.015-.35c.735-.175.175.07.7-.07.315-.07.945-.28,1.155-.35.42-.105.455-.245.665-.315a3.323,3.323,0,0,1,.735-.315,9.532,9.532,0,0,0,1.505-.875c.56-.28.945-.735,1.785-1.12C40.687-3.395,41.352-3.71,40.827-4.13Z" transform="translate(505 2548)" fill="url(#linear-gradient)"/>
    <path id="パス_58" data-name="パス 58" d="M-11.438-47.042c-10.836,0-28.81,20.812-28.81,35.346A12.616,12.616,0,0,0-28.122.688C-17.2.688-1.29-22.36-1.29-36.378A8.759,8.759,0,0,0-6.88-44.29,5.117,5.117,0,0,0-11.438-47.042ZM-7.4-43.516a6.642,6.642,0,0,1,2.752,5.5c0,14.878-12.9,36.206-25.628,36.206-3.01,0-5.16-2.752-5.16-6.794,0-14.964,17.63-31.734,25.714-32.938A3.151,3.151,0,0,0-7.4-43.516Zm18.06-1.892c-.43,0-.688.172-.688.6,0,2.666,2.322,6.45,5.246,6.45C20.3-38.356,26.918-43,30.53-43A139.6,139.6,0,0,0,14.19-25.628s-2.236.86-2.236,1.634A1.956,1.956,0,0,0,13.76-22.1c.946,0,7.138-5.074,14.878-5.074,1.806,0,3.1,2.064,3.1,3.784,0,8.342-10.836,20.21-20.812,20.21A8.98,8.98,0,0,1,4.644-6.45c-.258-.43-.43-.516-.6-.516a.393.393,0,0,0-.344.43c0,1.462,3.612,7.568,10.836,7.568,8.428,0,21.156-12.384,21.156-19.436,0-5.332-4.472-11.61-7.224-11.61-2.666,0-9.8,3.1-10.578,3.44,5.5-5.332,13.588-12.3,17.716-14.62,1.806-1.032,2.58-1.2,2.58-1.634,0-1.978-.43-4.558-1.376-4.558C33.626-47.386,25.026-43,16.254-43,11.61-43,11.18-45.408,10.664-45.408Z" transform="translate(594 2555)" fill="url(#linear-gradient)"/>
  </g>
</svg>
