<svg xmlns="http://www.w3.org/2000/svg" xmlns:xlink="http://www.w3.org/1999/xlink" width="517.847" height="32.028" viewBox="0 0 517.847 32.028">
  <defs>
    <linearGradient id="linear-gradient" x1="0.5" x2="0.5" y2="1" gradientUnits="objectBoundingBox">
      <stop offset="0" stop-color="#cba68b"/>
      <stop offset="0.542" stop-color="#ad827f"/>
      <stop offset="1" stop-color="#e6bea1"/>
    </linearGradient>
  </defs>
  <g id="グループ_245" data-name="グループ 245" transform="translate(-51 -1974.972)">
    <path id="パス_68" data-name="パス 68" d="M-255.174,0h15.68V-4.34h-10.5V-25.9h-5.18Zm23.7,0H-215.2V-4.34H-226.3v-6.93h9.1v-4.34h-9.1v-5.985h10.71V-25.9h-15.89Zm25.025,0h7.385c7.63,0,12.53-4.34,12.53-13.055,0-8.75-4.9-12.845-12.81-12.845h-7.1Zm5.18-4.165v-17.6h1.61c4.83,0,7.84,2.38,7.84,8.715,0,6.3-3.01,8.89-7.84,8.89ZM-177.964,0h5.18V-25.9h-5.18Zm19.915-10.675.77-2.835c.77-2.695,1.54-5.635,2.2-8.47h.14c.77,2.8,1.47,5.775,2.275,8.47l.77,2.835ZM-148.949,0h5.425l-8.33-25.9h-6.09L-166.239,0h5.25l1.82-6.65h8.4Zm11.97,0h4.9V-10.395c0-2.975-.385-6.23-.63-9.03h.175l2.625,5.565L-122.419,0h5.25V-25.9h-4.9v10.325c0,2.94.385,6.37.665,9.065h-.175l-2.59-5.6-7.525-13.79h-5.285Zm51.73.49a10.482,10.482,0,0,0,8.26-3.815l-2.73-3.22A7.2,7.2,0,0,1-85.074-3.99c-4.1,0-6.755-3.395-6.755-9.03,0-5.565,2.94-8.925,6.86-8.925a6.679,6.679,0,0,1,4.76,2.17l2.73-3.29a10.565,10.565,0,0,0-7.6-3.325c-6.545,0-12.04,5-12.04,13.545C-97.114-4.2-91.794.49-85.249.49ZM-69.324,0h15.68V-4.34h-10.5V-25.9h-5.18Zm23.695,0h5.18V-25.9h-5.18Zm15.05,0h4.9V-10.395c0-2.975-.385-6.23-.63-9.03h.175l2.625,5.565L-16.019,0h5.25V-25.9h-4.9v10.325c0,2.94.385,6.37.665,9.065h-.175l-2.59-5.6L-25.294-25.9h-5.285ZM-.864,0h5.18V-25.9H-.864Zm25.62.49a10.482,10.482,0,0,0,8.26-3.815l-2.73-3.22A7.2,7.2,0,0,1,24.931-3.99c-4.1,0-6.755-3.395-6.755-9.03,0-5.565,2.94-8.925,6.86-8.925a6.679,6.679,0,0,1,4.76,2.17l2.73-3.29a10.565,10.565,0,0,0-7.6-3.325c-6.545,0-12.04,5-12.04,13.545C12.891-4.2,18.211.49,24.756.49ZM58.5-6.3C57.2-6.3,55.8-8.015,55.8-11.515A10.868,10.868,0,0,1,64.586-21.56a55.635,55.635,0,0,1-1.855,8.4C61.331-8.47,59.931-6.3,58.5-6.3Zm9.52,7.735c8.75-1.33,13.23-6.51,13.23-13.79,0-7.56-5.425-13.545-14-13.545-8.995,0-15.96,6.86-15.96,14.84,0,5.845,3.255,10.08,7.07,10.08,3.78,0,6.79-4.27,8.855-11.27a75.325,75.325,0,0,0,2.065-9.415c4.655.805,7.245,4.375,7.245,9.17,0,5.04-3.43,8.225-7.875,9.275-.91.21-1.89.385-3.22.56Z" transform="translate(306.174 2005.565)" fill="#2d2d2d"/>
    <path id="パス_67" data-name="パス 67" d="M99.443-13.532c5.066-.612,6.392-3.434,6.392-5.644,0-2.346-1.36-6.052-7.99-6.052-4.862,0-7.82,2.89-7.82,5.032,0,1.054.476,1.8,1.428,1.8,1.36,0,1.734-.782,2.21-2.04a4.238,4.238,0,0,1,4.012-3.23c2.72,0,4.08,2.006,4.08,4.352,0,3.706-3.162,5.134-6.664,5.27v1.462c3.5,0,7.548,1.156,7.548,5.848,0,4.386-2.652,5.678-4.862,5.678A3.993,3.993,0,0,1,94.139-3.23a25.307,25.307,0,0,1-1.5-2.312,1.767,1.767,0,0,0-1.6-.952c-1.054,0-1.564.714-1.564,1.8,0,2.108,2.55,5.2,8.228,5.2,6.664,0,9.146-3.91,9.146-7.378,0-4.25-3.6-6.324-7.412-6.562ZM122.019-.986c6.8-.238,12.274-1.122,15.844-3.06a10.38,10.38,0,0,0,5.814-9.316c0-6.256-4.216-9.35-10.4-9.35-7.038,0-13.022,3.91-15.946,3.91a2.363,2.363,0,0,1-2.38-2.244l-.2-.068a2.438,2.438,0,0,0-.85,2.04,4.541,4.541,0,0,0,4.454,4.148c1.156,0,1.972-1.122,2.992-1.8,3.366-2.516,8.024-4.42,11.594-4.42,4.522,0,6.664,3.06,6.664,7.514a9.768,9.768,0,0,1-4.828,8.058c-2.584,1.632-7.616,3.3-12.92,3.842ZM165.335.272c11.526-.952,15.606-6.188,15.606-12.954,0-7.31-4.862-12.342-13.328-12.342-9.282,0-15.4,6.97-15.4,14.348,0,4.76,2.074,7.65,4.964,7.65,5.134,0,9.554-9.928,9.554-16.456a4.268,4.268,0,0,0-2.278-4.046,13.509,13.509,0,0,1,3.06-.408c7,0,9.486,4.726,9.486,11.084,0,5.27-3.2,10.744-11.832,12.478Zm-1.19-21.42c0,5.95-3.808,14.28-6.868,14.28-1.224,0-1.87-1.53-1.87-3.944,0-5.848,3.06-10.88,8.058-12.512A3.11,3.11,0,0,1,164.145-21.148Zm35.9,8.024v.986c2.244,0,3.06-.884,3.06-.952v-9.656a2.294,2.294,0,0,0,1.326-.68l-3.468-2.414-1.258,1.632H195.8c.816-.918,1.972-2.278,2.652-3.2.918-.034,1.258-.306,1.36-.85l-5.1-.714c-.136,1.394-.306,3.468-.51,4.76h-1.5l-3.2-1.36v13.974c2.652,0,3.026-1.054,3.026-1.088v-.442Zm-7.514-5.3h2.312V-13.8h-2.312Zm2.312-.68h-2.312v-4.42h2.312Zm5.2,0h-2.414v-4.42h2.414Zm-2.414.68h2.414V-13.8h-2.414Zm15.538,3.162c.85,3.6,2.176,7.14,5.474,10.132.17-1.836.714-3.162,1.428-3.6l.068-.374a12.678,12.678,0,0,1-6.494-6.63h4.59c.918,0,1.326-.17,1.6-.612L216.5-18.768l-1.768,2.346h-1.564v-5.746h4.25c.85,0,1.326-.17,1.564-.612l-3.162-2.346-1.7,2.278h-.952v-4.386c1.02-.1,1.326-.374,1.394-.85l-4.692-.408v5.644h-4.93l.2.68h4.726v5.746h-5.95l.17.68h4.216a25.994,25.994,0,0,1-3.264,8.976,11.894,11.894,0,0,0-1.326-.68l-.374.2a7.517,7.517,0,0,1,.85,2.04c-1.122.068-2.278.1-3.264.136a42.573,42.573,0,0,0,2.414-4.114c.782-.034,1.122-.2,1.224-.578l-4.012-.748c-.1,1.6-.34,3.774-.612,5.44l-1.088.034V-11.05c.986-.136,1.19-.306,1.258-.782l-4.42-.34v.918l-4.522-.408c.1,4.828-.476,10.88-3.57,14.144l.306.544c4.658-2.89,6.086-8.364,6.46-13.5.816-.1,1.19-.238,1.326-.612v9.622c0,3.128,1.19,3.74,5.78,3.74h12.206c5.168,0,6.324-.612,6.324-1.9,0-.51-.272-.646-1.8-1.122l.034-3.672h-.272C216.3-.34,216.131-.34,213.921-.34H201.273c-2.244,0-2.414-.1-2.414-1.088V-3.944l.918,1.972a1.032,1.032,0,0,0,.85-.714c1.564-.646,2.822-1.224,3.774-1.632a6.991,6.991,0,0,1,.136,1.428,1.473,1.473,0,0,0,1.19.68,1.565,1.565,0,0,0,1.5-1.632,3.135,3.135,0,0,0-1.36-2.346,19.675,19.675,0,0,0,4.012-4.59v8.5h.612c1.258,0,2.686-.748,2.686-1.122ZM250.1-19.958h-8.908c.17-2.448.17-4.964.238-7.514,1.122-.1,1.36-.374,1.428-.85l-5.406-.476c0,2.958,0,6.562-.136,8.84H226.739l.2.68h10.336c-.51,8.126-2.618,15.538-11.186,21.794l.374.51c11.458-5.644,14.008-13.6,14.654-22.3h9.35c-.34,9.758-.884,16.66-2.142,17.782a1.72,1.72,0,0,1-1.36.374c-1.054,0-3.808-.068-5.712-.17l-.034.476c4.42.748,4.93,1.632,4.93,3.876,2.516-.034,3.842-.51,5.066-1.632,1.938-1.7,2.618-8.568,2.992-19.788a2.445,2.445,0,0,0,1.462-.646l-3.91-3.06Z" transform="translate(313.174 2003.94)" fill="url(#linear-gradient)"/>
  </g>
</svg>
