<svg xmlns="http://www.w3.org/2000/svg" xmlns:xlink="http://www.w3.org/1999/xlink" width="63.271" height="70.168" viewBox="0 0 63.271 70.168">
  <defs>
    <clipPath id="clip-path">
      <rect id="長方形_211" data-name="長方形 211" width="63.271" height="70.168" fill="#b98e2e"/>
    </clipPath>
  </defs>
  <g id="グループ_308" data-name="グループ 308" clip-path="url(#clip-path)">
    <path id="パス_76" data-name="パス 76" d="M35.7.091c0,.022-.064.046-.186.073-.061.013-.137.027-.227.041l-.145.021c-.052.009-.107.022-.166.035l-.392.077L34.119.46c-.168.041-.342.111-.532.17s-.383.154-.592.235c-.27.13-.561.266-.856.444-.148.085-.292.189-.444.292-.075.051-.153.1-.231.153s-.155.109-.235.162a.7.7,0,0,0-.25.154,2.763,2.763,0,0,0-.2.235,1.77,1.77,0,0,1-.21.229.73.73,0,0,1-.271.17,2.472,2.472,0,0,0-.256.2c-.079.075-.155.155-.232.239a6.545,6.545,0,0,0-.434.535,6.186,6.186,0,0,0-.886,1.162,1.254,1.254,0,0,1-.441.638,1.09,1.09,0,0,0-.383.707c-.105.255-.237.5-.358.751-.062.126-.128.251-.195.378l-.191.387a4.292,4.292,0,0,0-.646,1.674,2.364,2.364,0,0,0-.405.854,4.5,4.5,0,0,0-.119.966,2.233,2.233,0,0,0-.27.439,2.19,2.19,0,0,0-.148.478,2.627,2.627,0,0,0,.022,1.034c-.057.334-.125.672-.188,1.014a4.406,4.406,0,0,0-.058,1.053c-.021.353-.032.711-.036,1.072s-.017.726-.048,1.092a5.094,5.094,0,0,1,.154,1.11,4.894,4.894,0,0,1,0,.562c-.006.094-.014.189-.025.285s-.017.19-.03.287a3.6,3.6,0,0,1,.15.561,4.673,4.673,0,0,1,.087.568q.024.289.041.58c.01.194.011.392.018.589.02.8.478,1.509.526,2.324.2.779.517,1.533.789,2.308a5.368,5.368,0,0,0,1.085,2.237c.459.7.978,1.357,1.423,2.08a14.775,14.775,0,0,1,1.8,1.778c.341.252.676.507,1.03.741a6.172,6.172,0,0,0,.555.313,3.645,3.645,0,0,0,.6.206,4.022,4.022,0,0,0,.6.2l.307.074a2.052,2.052,0,0,0,.221.032.185.185,0,0,1,.068,0,.767.767,0,0,1,.127.045l.006,0a.151.151,0,0,0,0-.079.35.35,0,0,0-.012-.064.141.141,0,0,1-.006-.032c0-.008,0,0-.006-.023l-.029-.086c-.036-.115-.08-.228-.113-.344s-.066-.231-.1-.347c-.079-.229-.129-.464-.2-.695a4.022,4.022,0,0,1-.14-.738,6.976,6.976,0,0,1,0-.745c.031-.494.1-.976.142-1.457.043-.116.078-.231.109-.347s.065-.231.09-.347.048-.234.068-.35.05-.232.071-.348.042-.234.067-.349l.085-.343c.032-.114.061-.228.1-.337s.085-.218.135-.324c.314-.884.842-1.643,1.2-2.474a9.547,9.547,0,0,1,1.515-2.2,1.88,1.88,0,0,1,.32-.587,3.026,3.026,0,0,1,.213-.248c.077-.078.158-.152.24-.225a9.036,9.036,0,0,0,.95-.876c.694-.506,1.206-1.182,1.866-1.686a4.55,4.55,0,0,1,.478-.388c.165-.122.334-.235.507-.342s.339-.221.5-.341a3.639,3.639,0,0,0,.469-.377c.084-.053.166-.109.247-.167l.245-.167c.163-.113.323-.226.484-.339a5.207,5.207,0,0,1,1.027-.555,3.3,3.3,0,0,1,1-.55c.018-.006.051-.02.059-.021l.02,0,.044-.007a.619.619,0,0,0,.092-.022c.007,0,.017,0,.022-.01v-.021c0-.013,0-.028-.006-.043a.261.261,0,0,0-.032-.085l-.018-.211c-.007-.089-.02-.175-.029-.263-.021-.173-.042-.347-.062-.519q-.066-.516-.131-1.021a2.191,2.191,0,0,0-.085-1.012c-.087-.322-.225-.628-.308-.94a13.859,13.859,0,0,1-.529-1.819,6.361,6.361,0,0,0-.64-1.677,4.144,4.144,0,0,1-.265-.827,1.725,1.725,0,0,0-.166-.391.854.854,0,0,0-.316-.3c-.313-.441-.35-1.053-.821-1.347s-.576-.806-.888-1.162L41.8,3.416l-.234-.249C41.415,3,41.255,2.852,41.1,2.7a9.818,9.818,0,0,0-2.063-1.518A8.79,8.79,0,0,0,37.281.457,16.081,16.081,0,0,1,35.7.091c0-.036.175-.066.522-.089.172,0,.388,0,.642.021l.411.049c.148.019.3.057.466.09a8.2,8.2,0,0,1,2.294.9,11.145,11.145,0,0,1,2.58,2.087,3.776,3.776,0,0,1,1,1.19,6.1,6.1,0,0,1,.924,1.387,3.64,3.64,0,0,1,.84,1.566c.258.555.433,1.158.727,1.738a13.726,13.726,0,0,1,.608,1.891,5.6,5.6,0,0,0,.149,1.022,9.955,9.955,0,0,0,.313,1.012,4.868,4.868,0,0,0,.125,1.069c.034.178.07.357.1.538.016.09.036.181.046.272l.015.137.018.192c-.012.158-.019.307-.023.453l0,.216,0,.108c-.022.024-.066.033-.1.051-.138.062-.272.126-.4.192l-.2.1-.1.052-.066.036a10.429,10.429,0,0,0-.905.626c-.3.208-.62.4-.947.584-.161.1-.322.193-.482.294-.08.051-.158.1-.237.156s-.153.113-.227.172c-.161.1-.32.207-.475.318s-.3.236-.454.357-.3.244-.449.367-.305.243-.462.362a12.963,12.963,0,0,1-1.745,1.618c-.513.621-1.092,1.192-1.6,1.837-.444.693-.987,1.323-1.392,2.056-.1.184-.2.365-.318.542l-.172.265-.163.272c-.053.091-.105.184-.154.278s-.088.192-.125.292a2.925,2.925,0,0,0-.1.3,2.045,2.045,0,0,0-.052.32,10.753,10.753,0,0,0-.636,2.446,6.109,6.109,0,0,0,.007,2.516,2.265,2.265,0,0,0,.017.618c.017.1.037.2.061.3a3.018,3.018,0,0,0,.1.292l.028.072.054.131a2.476,2.476,0,0,0,.128.281c.1.192.209.383.314.575.215.4.457.789.7,1.21l-.14.017c-.395,0-.815,0-1.23-.022a8.4,8.4,0,0,1-1.277-.124c-.264-.042-.331-.061-.467-.091l-.365-.109a7.417,7.417,0,0,1-.711-.262,8.664,8.664,0,0,1-2.551-1.474c-.1-.068-.2-.139-.293-.214s-.182-.157-.271-.238-.175-.163-.26-.249l-.242-.262c-.08-.088-.163-.173-.24-.261s-.154-.179-.232-.268l-.238-.259c-.077-.088-.158-.172-.24-.256a3.164,3.164,0,0,1-.239-.257c-.073-.091-.143-.184-.21-.278s-.136-.19-.2-.287l-.179-.3-.177-.3-.17-.3c-.117-.2-.241-.386-.369-.573a7.865,7.865,0,0,1-1.145-2.415,22.417,22.417,0,0,0-.813-2.463,4.874,4.874,0,0,1-.525-2.46,3.921,3.921,0,0,1-.105-.609c-.022-.2-.033-.407-.039-.61s-.017-.405-.039-.606a3.382,3.382,0,0,0-.092-.595,2.533,2.533,0,0,0,.043-.3,2.771,2.771,0,0,0,.018-.3,4.651,4.651,0,0,0-.035-.588,10.618,10.618,0,0,1-.086-1.162c.027-.386.061-.765.1-1.141a9.589,9.589,0,0,0,.033-1.122,4.353,4.353,0,0,1,.1-1.1c.079-.357.158-.707.2-1.06a2.968,2.968,0,0,1,.221-1.031c.057-.165.112-.329.158-.494a2.1,2.1,0,0,0,.086-.507q.142-.489.279-.967a8.845,8.845,0,0,1,.325-.925c-.074-.716.452-1.2.733-1.735a3.008,3.008,0,0,0,.182-.418c.054-.14.108-.281.16-.421a1.615,1.615,0,0,1,.5-.729,1.594,1.594,0,0,1,.356-.778c.182-.216.39-.407.57-.607.37-.391.558-.906.993-1.191a1.328,1.328,0,0,1,.483-.548c.1-.071.2-.138.289-.21a1.638,1.638,0,0,0,.26-.228,1.833,1.833,0,0,0,.284-.189c.089-.066.175-.134.257-.2l.241-.211a2.7,2.7,0,0,1,.258-.177c.078-.066.159-.131.239-.192s.168-.107.254-.156A2.563,2.563,0,0,1,31.866.8a9.1,9.1,0,0,1,.946-.4c.229-.068.439-.145.646-.192s.4-.1.578-.121.347-.05.5-.066L34.951,0c.061,0,.119,0,.173,0l.152.009c.094.008.172.016.235.024.125.016.189.036.189.057" transform="translate(-4.063 0)" fill="#b98e2e"/>
    <path id="パス_77" data-name="パス 77" d="M1.359,20.194c.02.012.009.079-.03.2-.02.06-.046.133-.08.22-.017.043-.035.088-.055.138s-.035.1-.053.163c-.04.114-.083.241-.132.382s-.082.3-.128.469-.075.357-.119.553-.058.414-.093.637c-.01.152-.021.308-.032.47s0,.333-.008.5.022.352.034.536.03.373.041.568a1.029,1.029,0,0,0,.115.59,1.15,1.15,0,0,1,.109.624,4.36,4.36,0,0,0,.395,1.3c.09.22.167.449.241.684a2.768,2.768,0,0,0,.337.678,1.323,1.323,0,0,1,.342.7,1.089,1.089,0,0,0,.429.692c.084.111.163.226.241.342s.16.231.239.349c.152.24.315.478.478.722a2.193,2.193,0,0,0,.492.754c.211.22.444.426.658.652a2.324,2.324,0,0,0,.551.782,4.29,4.29,0,0,0,.372.315c.132.1.274.187.415.276A2.344,2.344,0,0,0,7.64,35.821a8.631,8.631,0,0,0,1.7,1.246c.6.4,1.246.733,1.862,1.153a4.617,4.617,0,0,1,.542.18c.087.035.173.073.258.114s.172.077.256.12a5.252,5.252,0,0,1,.491.287c.163.1.322.21.479.328.1.019.193.041.287.066s.19.049.282.078a5.054,5.054,0,0,1,.541.212c.36.148.7.343,1.061.521a4.209,4.209,0,0,0,1.144.354,4.9,4.9,0,0,1,1.167.328c.788.209,1.608.307,2.426.439a5.479,5.479,0,0,0,2.509.129c.847-.064,1.676-.209,2.531-.264a16.366,16.366,0,0,1,2.433-.775c.094-.05.19-.1.287-.14s.187-.1.285-.145.192-.091.285-.143l.279-.159a4.241,4.241,0,0,0,.53-.358,3.435,3.435,0,0,0,.459-.446,4.883,4.883,0,0,0,.831-.96l.091-.13.046-.065c.006-.01.018-.027.018-.027l0-.01a.689.689,0,0,1,.036-.065l.024-.032c0-.013-.01-.027-.014-.041a.743.743,0,0,1-.021-.093h0l1.272-.612.19.436.468,1.072-1.043-.061a19.881,19.881,0,0,1-2.457-.344,4.022,4.022,0,0,1-.731-.213,5.417,5.417,0,0,1-.677-.336l-.322-.192c-.107-.066-.206-.138-.31-.2l-.311-.2q-.15-.106-.307-.2a9.548,9.548,0,0,0-1.095-.958c-.19-.148-.367-.308-.547-.466a4.64,4.64,0,0,1-.479-.527c-.639-.7-1.061-1.541-1.622-2.267a9.8,9.8,0,0,1-1.208-2.418,2.033,2.033,0,0,1-.363-.57,4.4,4.4,0,0,1-.2-.633,9.317,9.317,0,0,0-.3-1.274,8.847,8.847,0,0,0-.283-1.25,9.724,9.724,0,0,1-.283-1.23,6.828,6.828,0,0,1-.162-1.231c-.012-.206-.022-.41-.046-.611s-.056-.4-.1-.6c-.011-.2-.029-.4-.053-.6s-.035-.4-.051-.6a5.1,5.1,0,0,1,.016-1.18,3.536,3.536,0,0,1,.017-1.157c.015-.1.029-.19.044-.284l0-.036,0-.013.007-.021a.207.207,0,0,0,.011-.045.337.337,0,0,0,.01-.09c0-.017-.022-.015-.035-.02a.513.513,0,0,0-.051-.006c-.1-.043-.189-.088-.284-.132l-.485-.211c-.319-.145-.643-.268-.956-.413a4.346,4.346,0,0,0-1.9-.655,7.263,7.263,0,0,0-.947-.211,3.325,3.325,0,0,1-.91-.262c-.3-.068-.6-.156-.9-.214a3.292,3.292,0,0,0-.892-.083,4.276,4.276,0,0,1-.857-.195,1.092,1.092,0,0,0-.846.068,1.741,1.741,0,0,1-.41-.012c-.135-.014-.27-.033-.4-.051a1.272,1.272,0,0,0-.781.1,1.554,1.554,0,0,1-.74.148,4.876,4.876,0,0,0-.727.031c-.233.045-.463.082-.682.139l-.328.077-.316.091a11.368,11.368,0,0,0-1.3.465c-.195.095-.388.177-.567.273l-.263.143c-.043.022-.086.046-.129.07s-.081.05-.121.075a8.669,8.669,0,0,0-1.528,1.171c-.749.742-1.05,1.243-1.12,1.2-.032-.017.032-.187.187-.5a6.325,6.325,0,0,1,.909-1.248A8.128,8.128,0,0,1,4.414,16.9c.216-.119.439-.245.679-.352s.489-.218.75-.325a12.449,12.449,0,0,1,1.71-.511c.245-.061.492-.138.746-.209a1.977,1.977,0,0,1,.8-.05c.269-.018.543-.08.824-.1.14-.016.282-.028.425-.032a2.846,2.846,0,0,1,.433.039,1.833,1.833,0,0,1,.891-.078c.3.04.6.109.9.148s.618.076.93.133a8.917,8.917,0,0,0,.959.119,3.289,3.289,0,0,1,.976.182,6.66,6.66,0,0,0,.983.261,7.022,7.022,0,0,0,2.01.636,5.081,5.081,0,0,0,1,.444l.523.182.13.051c.046.018.072.028.158.067.145.064.291.129.436.2l.184.126.091.058c.012.012.038.015.04.033l-.011.061c-.024.162-.044.317-.059.468l-.02.226-.014.2c0,.092-.007.184-.007.275.007.367.062.738.1,1.109s.034.747.047,1.125c0,.189.006.379.014.57s.032.381.061.572c0,.1.007.192.015.289l.034.289c.024.192.052.385.084.577.073.384.137.772.2,1.164A14.72,14.72,0,0,1,22,27.179c.289.76.507,1.554.833,2.319.4.728.687,1.519,1.14,2.235.123.172.22.362.326.544s.2.374.316.556a4.929,4.929,0,0,0,.37.524,2.654,2.654,0,0,0,.479.433,10.171,10.171,0,0,0,1.884,1.717,6.091,6.091,0,0,0,2.26,1.143,3.1,3.1,0,0,0,2.03.367l-.581,1.019c-.107-.167-.216-.334-.325-.5l1.312-.632v0l.31.542.153.275c-.049.089-.107.179-.162.27l-.336.542-.042.067a.528.528,0,0,1-.032.045l-.058.079-.117.155A7.515,7.515,0,0,1,30.7,40a8.575,8.575,0,0,1-2.5,1.633,6.042,6.042,0,0,1-1.367.509c-.232.066-.468.11-.7.174s-.462.109-.689.183a5.4,5.4,0,0,1-.694.144c-.233.029-.468.039-.7.055s-.465.009-.7.024-.459.016-.689.05a8.11,8.11,0,0,1-2.7-.163,6.149,6.149,0,0,1-.653-.12l-.64-.16a5.575,5.575,0,0,0-1.285-.213c-.426-.075-.857-.127-1.275-.214a2.614,2.614,0,0,1-1.157-.538,5.755,5.755,0,0,1-1.149-.472c-.182-.094-.364-.191-.551-.271-.092-.041-.187-.08-.283-.114s-.19-.07-.288-.1a2.8,2.8,0,0,0-.5-.347,4.567,4.567,0,0,0-.532-.268l-.274-.115-.269-.12c-.179-.083-.357-.167-.527-.263a20.208,20.208,0,0,0-1.924-1.245,12.05,12.05,0,0,1-1.746-1.341c-.641-.362-.964-1.054-1.555-1.425-.24-.247-.475-.49-.709-.729A7.89,7.89,0,0,1,4,33.807a1.567,1.567,0,0,1-.706-.672c-.159-.283-.29-.576-.454-.838a8.075,8.075,0,0,0-.564-.721,2.552,2.552,0,0,1-.254-.371,1.444,1.444,0,0,1-.14-.43,2.735,2.735,0,0,1-.755-1.506A4.8,4.8,0,0,0,.8,28.537,2.108,2.108,0,0,1,.574,27.8c-.318-.43-.2-.968-.349-1.4a3.447,3.447,0,0,0-.075-.671,3.261,3.261,0,0,1-.091-.634A2.881,2.881,0,0,1,0,24.488a2.612,2.612,0,0,1,.053-.574c.017-.184.02-.363.047-.535s.051-.336.075-.5c.055-.235.1-.459.157-.664s.116-.395.184-.567l.194-.472.194-.372c.03-.055.056-.107.084-.154l.086-.129c.053-.078.1-.143.138-.193.076-.1.126-.147.144-.136" transform="translate(0 -2.606)" fill="#b98e2e"/>
    <path id="パス_78" data-name="パス 78" d="M36.812,38.517a.873.873,0,0,1-.251-.007l-.039-.007c-.024,0-.049,0-.038-.008.114-.017-.214.01-.036-.012.051-.01,0-.01-.036-.013s.072-.017-.035-.012c-.226.012.249-.036-.033-.017-.061,0-.046-.008-.032-.017.172-.022,0-.014-.03-.019.207-.025.116-.025-.028-.021.283-.032.24-.036-.027-.022-.01-.008.1-.025-.026-.024-.019-.007-.073-.012-.024-.025-.191.006-.182,0-.022-.026-.2.006-.124-.011-.019-.027s-.18-.007-.017-.029c.011-.011-.048-.017-.017-.029.085-.015.177-.032-.012-.03-.051-.009-.121-.015-.012-.032-.219,0-.122-.015-.008-.032-.036-.01.117-.028-.006-.033.033-.013-.1-.017,0-.033q.7-.036,1.409-.069c-.064.012-.126.025,0,.028s-.057.022,0,.029c-.2.021.068.015,0,.028.02.008-.117.026-.007.028.037.007.078.012-.009.028.314-.012-.08.022-.012.026-.132.018.022.017-.013.027.059,0-.143.027-.017.026-.025.011.1.009-.017.026.157,0-.13.027-.02.026,0,.007.011.013-.022.023-.244.027-.041.019-.024.024-.026.01.14,0-.026.023-.019.008-.127.024-.027.022.036,0-.355.044-.028.022.058,0-.25.035-.032.02.2-.013-.023.012-.032.018l-.034.019a1.027,1.027,0,0,1-.354.105.882.882,0,0,1-.4-.049c-.011,0-.182.006-.034-.014,0-.007-.131,0-.033-.017-.227.015-.042-.01-.032-.017-.012-.007.061-.021-.031-.02-.132,0,.065-.021-.028-.021.139-.019.1-.023-.027-.022.135-.018-.031-.013-.026-.023.208-.024.061-.022-.024-.024s.03-.021-.022-.026c.04-.012-.056-.015-.021-.028-.1,0-.135-.009-.016-.028-.07-.006-.016-.018-.017-.029-.085,0,.009-.021-.013-.03-.044-.008.221-.035-.011-.031-.031-.01.035-.024-.009-.032.028-.013.059-.026-.007-.033.228-.024.087-.027,0-.033q.726-.037,1.454-.071c.066.007.033.017,0,.028.024.009.012.018,0,.029.068.006-.1.023,0,.028s-.1.024-.007.028c.067,0,.1.01-.008.027,0,.009-.207.032-.012.027.044.006.3,0-.014.027.08,0-.152.027-.016.026-.233.026-.012.017-.017.026-.046.011-.123.026-.021.025s-.06.019-.022.024c.134,0-.173.028-.024.024-.03.009.021.012-.025.023.313-.021,0,.012-.027.022-.046.01.208-.007-.03.022.238-.017.033.007-.031.019s.1,0-.032.019c.167-.01-.091.019-.033.019-.11.015-.006.01-.035.017.038,0,.024.006-.036.016l-.036.015a1.064,1.064,0,0,1-.247.056" transform="translate(-6.14 -6.486)" fill="#b98e2e"/>
    <path id="パス_79" data-name="パス 79" d="M36.869,35.781a2.1,2.1,0,0,1,.245.054l.037.012c.023.006.048.012.036.012-.114-.015.212.037.035.012-.052,0,0,0,.034.013s-.074,0,.031.014c.223.036-.248-.032.032.013.061.012.043.013.029.014-.172-.022,0,.007.027.014-.207-.026-.118-.008.025.016-.283-.037-.24-.027.025.015.007,0-.1-.006.022.016.017.007.07.018.019.016.189.03.18.032.018.015.2.032.122.026.016.016s.177.033.015.015c-.013,0,.045.017.011.017-.085-.007-.177-.014.009.015.05.012.118.026.007.017.216.033.119.024,0,.015.035.009-.119,0,0,.016-.034,0,.094.022,0,.016-.066,0-.129,0,0,.015s-.059,0,0,.015c-.2-.02.064.017-.01.014.02.007-.119,0-.01.014.037.009.076.017-.012.012.312.041-.081,0-.016.013-.132-.011.018.012-.016.012.057.011-.146-.007-.02.011-.027,0,.1.02-.021.011.153.022-.132-.006-.024.01,0,0,.009.01-.023.011-.245-.022-.044,0-.028.007-.027,0,.138.022-.027.008-.021,0-.129-.007-.031.007.036.007-.357-.029-.032.007.058.007-.25-.02-.032.006.2.022-.026,0-.035,0l-.035,0a1.729,1.729,0,0,1-.366,0,1.5,1.5,0,0,1-.389-.084c-.011,0-.181-.025-.031-.012,0,0-.13-.02-.031-.014-.227-.027-.041-.012-.03-.013-.011-.006.063,0-.027-.015-.131-.018.066,0-.026-.015.141.009.1,0-.023-.016.137.01-.028-.012-.022-.017.211.018.064,0-.02-.017s.032-.007-.017-.016c.041,0-.052-.017-.016-.018-.1-.016-.133-.025-.013-.017-.067-.014-.012-.013-.012-.019-.083-.014.012-.009-.01-.017-.041-.012.224.014-.007-.019-.027-.009.038-.007,0-.017.03,0,.061,0,0-.019.229.022.09,0,0-.017-.065-.014-.031-.017,0-.018-.022-.009-.01-.013.006-.017-.066-.015.1,0,.008-.017s.105,0,.011-.016c-.065-.014-.1-.025.014-.015,0-.006.207.017.014-.015-.043-.011-.3-.051.017-.013-.077-.016.154.012.019-.013.232.028.013-.007.022-.011.045,0,.124.007.023-.012s.061,0,.024-.01c-.131-.024.175.016.027-.011.031,0-.019-.01.027-.007-.31-.05,0-.007.032-.007.045,0-.206-.038.032-.007-.236-.038-.032-.011.032-.006s-.1-.021.034,0c-.166-.028.092.008.036,0,.109.014.007,0,.036,0-.036-.008-.024-.009.037,0h.039a1.564,1.564,0,0,1,.249.021" transform="translate(-6.157 -6.107)" fill="#b98e2e"/>
    <path id="パス_80" data-name="パス 80" d="M1.367,59.655c.02-.012.073.032.157.125.042.048.093.107.15.178l.093.118.114.128c.08.09.168.193.266.3s.218.221.342.347.27.244.418.38.329.257.507.4c.126.084.255.172.391.263s.285.169.434.26.316.156.48.239.337.159.512.247a1.025,1.025,0,0,0,.569.2,1.138,1.138,0,0,1,.594.216,4.43,4.43,0,0,0,1.323.308c.235.03.472.079.714.133a2.776,2.776,0,0,0,.755.047,1.315,1.315,0,0,1,.783.055,1.086,1.086,0,0,0,.813-.025c.138-.018.275-.03.415-.039s.28-.025.422-.032c.284-.013.572-.035.865-.056a2.185,2.185,0,0,0,.9-.048c.3-.074.592-.172.894-.245a2.31,2.31,0,0,0,.953-.088,4.28,4.28,0,0,0,.459-.165c.15-.066.3-.144.446-.222a2.341,2.341,0,0,0,1.9-.655,8.574,8.574,0,0,0,1.927-.849c.643-.32,1.258-.714,1.93-1.037a5.4,5.4,0,0,1,.884-.708,5.18,5.18,0,0,1,.494-.283c.168-.091.342-.174.523-.25.066-.076.132-.148.2-.217s.137-.139.208-.2a5.332,5.332,0,0,1,.454-.366c.308-.236.65-.437.982-.659a4.16,4.16,0,0,0,.876-.814,4.906,4.906,0,0,1,.867-.847c.573-.578,1.069-1.24,1.59-1.884a5.478,5.478,0,0,0,1.366-2.109c.367-.765.656-1.555,1.036-2.323a16.45,16.45,0,0,1,.546-2.494c0-.107.012-.213.022-.319s.01-.212.017-.319.017-.211.019-.318l0-.32a4.6,4.6,0,0,0-.044-.64,3.578,3.578,0,0,0-.157-.62,4.9,4.9,0,0,0-.414-1.2l-.067-.144-.034-.071-.015-.035,0-.007a.369.369,0,0,1-.037-.066c0-.011-.011-.022-.016-.035l-.036-.008a.686.686,0,0,1-.085-.029l.095-1.408h0l.478.051,1.16.124-.579.882a20.379,20.379,0,0,1-1.535,1.964,4.127,4.127,0,0,1-.551.527,5.309,5.309,0,0,1-.629.418l-.328.184c-.109.058-.223.109-.333.165s-.219.115-.329.169-.221.106-.33.164a9.783,9.783,0,0,0-1.375.468c-.224.091-.45.166-.677.242a4.671,4.671,0,0,1-.7.153c-.93.2-1.865.148-2.774.271a9.854,9.854,0,0,1-2.7-.163,2.045,2.045,0,0,1-.676.028,4.207,4.207,0,0,1-.646-.146A9.311,9.311,0,0,0,17.4,46.56c-.8-.333-1.653-.431-2.43-.752a6.811,6.811,0,0,1-1.146-.476c-.184-.093-.366-.186-.552-.266-.093-.041-.187-.079-.282-.113s-.19-.07-.289-.1c-.179-.093-.362-.175-.545-.256l-.542-.253-.267-.129c-.087-.047-.173-.1-.257-.146a4.652,4.652,0,0,1-.488-.328,3.6,3.6,0,0,1-.993-.593l-.225-.181a.136.136,0,0,1-.027-.026l-.015-.017-.032-.032a.376.376,0,0,0-.075-.051c-.006-.007-.012,0-.017.006l-.017.019a.208.208,0,0,0-.03.04l-.262.184-.424.316c-.286.2-.554.425-.835.624A4.343,4.343,0,0,0,6.13,45.353a7.078,7.078,0,0,0-.654.716,3.4,3.4,0,0,1-.682.658c-.21.23-.434.443-.633.672a3.275,3.275,0,0,0-.518.731,4.259,4.259,0,0,1-.6.646,1.1,1.1,0,0,0-.363.768,1.741,1.741,0,0,1-.215.348c-.08.11-.165.217-.247.326a1.264,1.264,0,0,0-.308.723,1.548,1.548,0,0,1-.241.715,4.775,4.775,0,0,0-.337.648c-.078.222-.158.44-.219.658-.032.109-.066.216-.1.323S.967,53.5.941,53.6A11.121,11.121,0,0,0,.7,54.96c-.016.216-.041.425-.046.628s-.02.4-.007.589a8.694,8.694,0,0,0,.248,1.907c.269,1.02.551,1.532.478,1.571-.032.017-.146-.121-.34-.413A6.346,6.346,0,0,1,.4,57.83a8.152,8.152,0,0,1-.357-2.468c0-.246.006-.5.033-.764s.056-.532.1-.812a12.159,12.159,0,0,1,.41-1.737c.07-.241.126-.493.192-.75a1.967,1.967,0,0,1,.357-.716c.119-.245.2-.512.32-.767.056-.129.117-.259.186-.385a2.616,2.616,0,0,1,.249-.356,1.842,1.842,0,0,1,.376-.809c.184-.24.395-.465.581-.712s.374-.5.579-.737a8.868,8.868,0,0,0,.581-.773,3.309,3.309,0,0,1,.644-.755,6.332,6.332,0,0,0,.716-.721,7.05,7.05,0,0,0,1.553-1.424A5.084,5.084,0,0,0,7.8,42.5l.42-.362.109-.088.054-.042.076-.057c.127-.094.258-.187.388-.279l.2-.1.1-.05.048-.026.012-.006.012.009.025.019c.128.1.25.2.375.285l.184.132.174.116c.076.05.153.1.234.143.32.177.67.315,1.01.47a5.334,5.334,0,0,1,.5.247l.246.138.248.135c.166.092.332.185.5.274s.345.163.524.234c.085.046.171.09.258.133s.177.078.267.115c.178.074.358.146.541.216.369.129.736.269,1.105.412a14.807,14.807,0,0,1,2.308.682c.8.13,1.6.338,2.423.438.831.019,1.659.165,2.506.13.21-.017.421-.009.633-.008s.426.009.64,0a4.687,4.687,0,0,0,.638-.06,2.576,2.576,0,0,0,.615-.2,10.09,10.09,0,0,0,2.428-.772,6.07,6.07,0,0,0,2.12-1.386,3.1,3.1,0,0,0,1.337-1.582c.194.337.39.676.585,1.013-.191.011-.381.022-.574.034h0q.049-.728.1-1.453H31.8a2.443,2.443,0,0,1,.314.012l.152.278.3.564.039.07.02.046.038.089.077.179a7.719,7.719,0,0,1,.439,1.473,8.647,8.647,0,0,1,.158,2.984,6.088,6.088,0,0,1-.243,1.437c-.061.234-.138.46-.2.691s-.137.454-.186.688a5.23,5.23,0,0,1-.221.672c-.092.217-.2.426-.3.635s-.225.407-.328.614-.215.406-.3.621a8.1,8.1,0,0,1-1.489,2.259c-.137.174-.278.346-.431.506s-.3.317-.457.473a5.637,5.637,0,0,0-.828,1.007c-.276.333-.536.678-.822,1a2.613,2.613,0,0,1-1.041.735,5.82,5.82,0,0,1-.983.76c-.172.111-.347.221-.51.341-.082.06-.163.122-.239.188s-.157.13-.23.2a2.775,2.775,0,0,0-.551.26,4.605,4.605,0,0,0-.5.328,10.617,10.617,0,0,1-.966.677,20.827,20.827,0,0,0-2.039,1.046,12.042,12.042,0,0,1-2.033.843,3.172,3.172,0,0,1-1.012.337,3.639,3.639,0,0,0-1,.3l-.984.251a7.958,7.958,0,0,1-.974.192,1.565,1.565,0,0,1-.935.277c-.324,0-.644-.037-.954-.026a8.393,8.393,0,0,0-.906.129,2.46,2.46,0,0,1-.447.035,1.424,1.424,0,0,1-.443-.093A2.719,2.719,0,0,1,9.1,64.4a4.829,4.829,0,0,0-.794-.087,2.1,2.1,0,0,1-.751-.172c-.531.061-.939-.309-1.389-.4a3.32,3.32,0,0,0-.618-.271,3.265,3.265,0,0,1-.594-.239A2.932,2.932,0,0,1,4.4,62.98a2.665,2.665,0,0,1-.47-.334c-.151-.106-.3-.2-.439-.309L3.1,62.024c-.175-.165-.348-.313-.5-.468s-.284-.3-.4-.444-.217-.28-.312-.4-.158-.247-.226-.353c-.032-.054-.064-.1-.091-.151s-.046-.1-.069-.138c-.041-.085-.074-.157-.1-.216-.049-.118-.064-.183-.046-.194" transform="translate(-0.008 -7.074)" fill="#b98e2e"/>
    <path id="パス_81" data-name="パス 81" d="M37.221,42.093a.606.606,0,0,1-.075.244c-.007.012-.014.023-.022.036s-.018.046-.024.035c0-.117-.036.213-.027.033,0-.053-.016-.007-.03.032s-.011-.075-.032.03c-.035.224.006-.251-.035.028-.017.06-.027.042-.036.027.007-.173-.023,0-.039.024.012-.208-.011-.12-.041.022.022-.285,0-.243-.043.022-.015.007-.013-.1-.044.018-.017.017-.038.067-.046.017-.041.187-.056.176-.046.012-.045.2-.05.117-.048.01s-.059.173-.051.007c-.013-.015-.038.041-.05.006,0-.086,0-.182-.052,0-.024.048-.053.113-.051,0-.055.213-.056.115-.053,0-.025.033-.015-.122-.055,0-.012-.036-.053.089-.053-.007q.128-.693.261-1.386c0,.068.007.131.046.008s.02.062.044.012c-.02.2.042-.061.044.014.018-.017.009.121.041.016.02-.035.041-.071.041.018.064-.309.015.084.04.019-.006.134.031-.015.039.022.022-.056,0,.148.036.024.01.028.041-.1.036.025.034-.152.007.134.034.027.012,0,.026-.007.033.027-.02.245.017.044.03.029.008.027.039-.136.03.03.008.022.006.129.028.033.012-.036-.02.357.026.032.014-.056-.008.253.023.035.03-.2.015.027.022.036l.02.038a.691.691,0,0,1,.079.372.606.606,0,0,1-.179.379c-.009.01-.037.18-.032.03-.011,0-.034.128-.034.028-.037.225-.028.039-.037.027-.013.01-.016-.064-.039.024-.028.129-.017-.067-.041.023,0-.14-.013-.105-.043.021,0-.137-.031.026-.045.018.014-.211-.019-.065-.046.017s-.025-.036-.047.013c-.008-.042-.038.047-.047.009-.031.1-.053.129-.05.007-.027.066-.034.009-.051.006-.031.08-.032-.016-.052,0-.025.04,0-.226-.052,0-.022.025-.029-.042-.054,0-.012-.032-.025-.066-.054,0,.024-.227-.019-.092-.054-.007q.136-.715.269-1.43c.027-.063.036-.028.046.007.02-.019.032,0,.044.012.027-.064.014.1.044.013s.012.108.042.016c.026-.063.045-.1.04.018.015,0,0,.211.041.02.02-.042.072-.3.038.022.024-.075,0,.157.036.025-.02.232.024.016.035.025.007.047.008.126.035.026s.014.064.031.028c.03-.133,0,.175.032.029.007.031.023-.019.029.03.047-.311.02,0,.027.032.006.047.042-.2.026.034.036-.235.022-.03.023.035s.029-.1.023.036c.025-.166.007.094.02.037,0,.111.014.007.018.038.01-.036.016-.022.016.038l.015.041a.684.684,0,0,1,.029.255" transform="translate(-6.194 -7.042)" fill="#b98e2e"/>
    <path id="パス_82" data-name="パス 82" d="M36.207,41.937a.586.586,0,0,1-.1.235.253.253,0,0,1-.026.033c-.011.022-.023.045-.028.032.016-.114-.057.207-.031.03,0-.052-.016-.007-.033.029s0-.076-.036.027c-.057.217.032-.25-.037.023-.024.057-.032.04-.04.022.026-.171-.022-.006-.041.021.034-.206,0-.12-.045.018.053-.28.032-.24-.045.017-.015.006,0-.105-.046.014-.02.014-.047.063-.05.011-.061.182-.075.168-.05.007-.066.193-.061.11-.049,0s-.079.164-.051,0c-.012-.017-.046.036-.053,0,.007-.086.017-.181-.053,0-.03.044-.067.1-.052-.007-.08.2-.07.106-.054-.008-.029.03,0-.124-.054-.012-.008-.037-.066.08-.055-.015q.214-.672.429-1.345c0,.068-.009.132.044.014s.012.064.042.017c-.046.2.047-.056.041.018.02-.016-.006.121.039.02.024-.032.048-.066.037.022.1-.3.006.085.036.025-.022.132.032-.012.035.026.028-.052-.011.148.034.028.006.029.05-.091.032.029.051-.147-.007.133.032.029.011,0,.025,0,.029.032-.046.24.012.045.027.032.006.028.053-.131.026.034.006.021-.007.129.023.035.018-.034-.056.352.022.036.022-.056-.034.25.021.037.051-.2.012.028.018.037l.017.04a.706.706,0,0,1,.04.378.592.592,0,0,1-.218.359c-.011.009-.056.175-.035.026-.011,0-.048.124-.038.025-.059.22-.031.036-.04.022-.014.009-.01-.066-.042.02-.041.127-.009-.069-.043.019.019-.14,0-.107-.046.015.018-.135-.034.022-.046.014.036-.206-.014-.066-.05.012s-.021-.039-.049.007c0-.043-.044.043-.049,0-.042.091-.068.122-.052,0-.034.061-.036,0-.052,0-.039.076-.031-.019-.053,0-.029.037.029-.224-.054-.006-.026.023-.025-.046-.054-.008-.009-.033-.018-.068-.055-.012.05-.224-.009-.094-.055-.015q.221-.693.443-1.386c.035-.059.04-.022.043.013.022-.017.032,0,.042.017.035-.061,0,.1.041.017s0,.109.039.022c.032-.061.056-.092.038.022.013,0-.029.209.036.025.024-.04.1-.286.035.026.032-.073-.014.156.033.028-.046.23.022.019.032.03,0,.046-.006.125.031.028s.009.064.029.032c.042-.128-.017.174.027.032,0,.032.027-.015.027.033.079-.3.018.007.023.035,0,.046.064-.2.022.036.059-.231.024-.027.02.037s.037-.095.018.038c.041-.163,0,.094.017.04-.015.11.012.009.013.04.014-.036.017-.022.012.041l.011.041a.65.65,0,0,1,0,.256" transform="translate(-6.008 -7.006)" fill="#b98e2e"/>
    <path id="パス_83" data-name="パス 83" d="M34.241,41.3a.851.851,0,0,1-.133.213l-.027.03c-.013.017-.027.039-.027.027.044-.108-.1.191-.029.026.017-.049-.01-.007-.03.025s.019-.072-.032.022c-.1.2.094-.233-.032.02-.032.052-.031.034-.032.017.067-.158-.013-.007-.033.017.082-.191.036-.112-.034.013.115-.26.09-.224-.033.013-.013,0,.027-.1-.035.008-.017.013-.049.057-.035.007-.094.168-.1.156-.036.006-.1.179-.073.1-.036,0s-.1.152-.035,0c0-.017-.04.032-.035,0,.027-.08.061-.167-.036,0-.033.041-.075.1-.035-.007-.109.189-.075.1-.034-.008-.027.027.033-.116-.033-.012,0-.035-.067.075-.034-.014.219-.415.439-.833.659-1.248h0c-.021.062-.041.122.027.013s-.008.06.026.017c-.084.185.048-.051.024.018.017-.013-.036.114.022.021.026-.032.051-.062.02.022.15-.278-.02.08.018.023-.05.123.026-.01.018.025.033-.048-.048.138.016.027,0,.027.06-.085.014.028.075-.137-.042.125.012.03.007,0,.018,0,.011.032-.1.225,0,.045.009.032,0,.027.073-.119.009.034,0,.022-.041.123.006.035.021-.03-.137.33,0,.036.03-.051-.094.233,0,.036.089-.181,0,.027,0,.038v.038a.939.939,0,0,1-.082.362.811.811,0,0,1-.246.322c-.009.008-.087.161-.031.022-.006,0-.066.114-.032.021-.1.2-.032.032-.033.017-.011.007.012-.063-.033.016-.063.117.013-.065-.034.014.052-.13.029-.1-.034.012.051-.126-.029.02-.034.01.082-.194.009-.065-.036.007s0-.036-.035,0c.009-.041-.042.04-.036,0-.052.083-.08.112-.036,0-.041.056-.026,0-.035,0-.047.07-.015-.018-.036,0-.03.033.081-.21-.036-.007-.024.021,0-.042-.033-.01,0-.031.006-.064-.034-.012.095-.208.019-.088-.033-.014q.34-.644.677-1.289c.041-.053.034-.019.028.015.02-.017.023,0,.025.016.041-.056-.027.1.024.018s-.03.1.022.021c.037-.056.062-.084.02.022.009,0-.077.194.019.024.028-.036.151-.265.017.025.044-.068-.051.146.017.027-.1.212.01.018.014.027-.012.045-.039.119.012.032s-.011.061.012.032c.065-.118-.061.163.009.032-.007.031.022-.012.007.033.141-.281.012.007.006.035-.012.045.1-.182.006.036.106-.212.024-.025,0,.037s.052-.086,0,.037c.075-.15-.029.088,0,.037-.041.1.007.011,0,.04.02-.033.018-.018,0,.039l-.006.04a.935.935,0,0,1-.073.243" transform="translate(-5.706 -6.902)" fill="#b98e2e"/>
    <path id="パス_84" data-name="パス 84" d="M33.572,40.98a.839.839,0,0,1-.15.2l-.028.028c-.014.018-.031.037-.029.026.051-.1-.114.184-.031.025.02-.049-.008-.01-.032.022s.026-.07-.032.021c-.115.194.109-.227-.032.017-.036.051-.035.032-.034.017.076-.154-.012-.009-.035.013.1-.185.045-.11-.035.012.133-.253.1-.218-.034.01-.012,0,.034-.1-.035.007-.017.012-.052.054-.035,0-.1.161-.109.149-.036,0-.112.172-.08.1-.035,0s-.109.145-.035,0c0-.016-.043.029-.035,0,.034-.076.072-.164-.034-.007-.036.038-.081.091-.033-.009-.123.182-.085.092-.034-.011-.029.024.041-.114-.033-.014.008-.035-.07.07-.031-.017q.372-.6.748-1.2c-.028.061-.051.119.024.016s-.014.059.022.017c-.1.179.051-.049.021.019.018-.012-.046.11.019.022.027-.029.055-.058.017.022.167-.267-.025.078.017.023-.061.12.025-.007.014.027.036-.047-.058.134.012.027,0,.027.064-.081.013.029.082-.132-.051.122.008.03.006.006.017,0,.009.032-.113.218-.008.044.006.032,0,.027.078-.115.006.035,0,.021-.05.12,0,.036.023-.029-.156.321,0,.036.033-.048-.106.228,0,.036.1-.175,0,.028,0,.038l0,.039a1.033,1.033,0,0,1-.1.357.792.792,0,0,1-.261.308c-.011.006-.1.156-.032.02-.006,0-.074.109-.034.017-.112.2-.031.032-.032.017-.014,0,.014-.063-.035.014-.07.11.016-.067-.035.01.059-.127.035-.1-.036.009.06-.124-.03.017-.036.007.1-.188.015-.064-.035,0s0-.037-.036,0c.011-.04-.046.036-.037,0-.058.08-.087.106-.036,0-.044.052-.025,0-.034,0-.053.066-.016-.022-.036-.008-.033.032.094-.2-.035-.01-.027.019,0-.042-.035-.012.006-.031.01-.064-.033-.016.11-.2.025-.085-.033-.017q.386-.617.771-1.235c.041-.05.033-.017.024.017.022-.015.023,0,.025.017.043-.052-.034.094.023.02s-.039.1.02.022c.041-.051.067-.079.017.023.007,0-.089.189.017.026.03-.034.17-.254.016.026.047-.065-.062.142.012.028-.109.206.01.019.012.029-.015.044-.046.117.011.032s-.017.061.007.032c.074-.112-.072.16.008.034-.01.029.022-.011.006.034.158-.271.011.007,0,.036s.114-.176,0,.036c.12-.206.025-.022,0,.036s.058-.081,0,.037c.085-.143-.036.086,0,.039-.048.1.006.01,0,.038.022-.031.018-.016-.007.04l-.007.039a1.085,1.085,0,0,1-.09.236" transform="translate(-5.587 -6.845)" fill="#b98e2e"/>
    <path id="パス_85" data-name="パス 85" d="M35.726,77.146c0-.022.063-.046.185-.072.061-.014.137-.027.227-.041l.145-.022c.053-.009.108-.022.166-.034l.392-.078.465-.121c.167-.041.343-.111.533-.171s.382-.153.591-.235a9.567,9.567,0,0,0,.856-.444c.148-.085.292-.189.444-.292.075-.051.153-.1.23-.153s.155-.109.236-.162a.687.687,0,0,0,.25-.155,2.765,2.765,0,0,0,.2-.234,1.9,1.9,0,0,1,.21-.23.716.716,0,0,1,.271-.168,2.4,2.4,0,0,0,.255-.2c.08-.075.158-.155.233-.238a6.2,6.2,0,0,0,.434-.536,6.134,6.134,0,0,0,.887-1.163,1.27,1.27,0,0,1,.439-.638,1.088,1.088,0,0,0,.385-.707c.1-.253.236-.5.357-.75.061-.126.128-.251.195-.377s.126-.258.19-.388a4.284,4.284,0,0,0,.646-1.674A2.348,2.348,0,0,0,45.554,67a4.617,4.617,0,0,0,.12-.966,2.361,2.361,0,0,0,.27-.439,2.28,2.28,0,0,0,.146-.478,2.642,2.642,0,0,0-.022-1.034c.056-.335.124-.672.188-1.015a4.357,4.357,0,0,0,.057-1.052q.031-.532.036-1.072c.014-.362.016-.726.046-1.095a5.205,5.205,0,0,1-.154-1.109,5.075,5.075,0,0,1,0-.561c.006-.095.015-.19.026-.285s.017-.191.029-.288a3.658,3.658,0,0,1-.149-.561,4.544,4.544,0,0,1-.088-.57c-.014-.191-.028-.385-.039-.579s-.012-.392-.02-.589c-.019-.8-.478-1.509-.526-2.324-.2-.779-.517-1.533-.789-2.308A5.37,5.37,0,0,0,43.6,48.443c-.458-.7-.976-1.357-1.422-2.079a14.446,14.446,0,0,1-1.8-1.78c-.341-.25-.675-.507-1.031-.74-.177-.117-.367-.212-.554-.311a3.474,3.474,0,0,0-.6-.206,3.72,3.72,0,0,0-.6-.2l-.307-.073a1.629,1.629,0,0,0-.221-.032.194.194,0,0,1-.066,0,.675.675,0,0,1-.128-.046l0,.007a.144.144,0,0,0-.006.077.537.537,0,0,0,.012.065c0,.012,0,.021.006.032l0,.007,0,0,0,.013.029.085c.036.116.079.229.112.344s.066.233.1.347c.079.23.129.464.2.7a4.006,4.006,0,0,1,.138.738,6.551,6.551,0,0,1,0,.744c-.031.494-.1.977-.142,1.457-.042.116-.078.232-.109.347s-.065.231-.09.347-.049.233-.069.35-.048.231-.07.348-.042.233-.067.349l-.085.342c-.032.114-.061.228-.1.337s-.085.219-.135.325c-.314.884-.842,1.643-1.2,2.474a9.567,9.567,0,0,1-1.515,2.2,1.891,1.891,0,0,1-.32.586,3.082,3.082,0,0,1-.214.25c-.076.077-.157.151-.239.225a8.8,8.8,0,0,0-.951.875c-.693.507-1.206,1.182-1.865,1.686a4.717,4.717,0,0,1-.478.388c-.166.121-.336.235-.508.342s-.34.221-.5.341a3.7,3.7,0,0,0-.469.376c-.084.053-.167.109-.246.167l-.247.166-.484.34a5.171,5.171,0,0,1-1.025.555,3.284,3.284,0,0,1-1,.549l-.062.024-.021,0-.043.006a.661.661,0,0,0-.092.025.1.1,0,0,0-.022.008v.021a.206.206,0,0,0,.006.043.242.242,0,0,0,.031.085l.018.211c.007.089.02.175.03.262.021.173.041.347.061.519q.066.516.132,1.022a2.2,2.2,0,0,0,.084,1.012c.088.322.225.626.31.939a14.179,14.179,0,0,1,.529,1.821,6.311,6.311,0,0,0,.641,1.676,4.2,4.2,0,0,1,.265.827,1.721,1.721,0,0,0,.167.391.853.853,0,0,0,.314.3c.315.441.352,1.053.823,1.347s.575.807.887,1.163c.076.088.151.177.226.264l.232.248c.151.167.31.317.464.465a9.769,9.769,0,0,0,2.061,1.518,8.825,8.825,0,0,0,1.759.726,15.922,15.922,0,0,1,1.582.366c0,.036-.176.066-.522.088-.172,0-.387,0-.643-.019-.127-.017-.264-.032-.41-.05s-.3-.057-.466-.089a8.2,8.2,0,0,1-2.3-.9,11.251,11.251,0,0,1-2.581-2.086,3.77,3.77,0,0,1-.993-1.19,6.1,6.1,0,0,1-.925-1.386,3.65,3.65,0,0,1-.841-1.566c-.258-.556-.434-1.158-.729-1.736a13.684,13.684,0,0,1-.606-1.893,5.649,5.649,0,0,0-.151-1.02,9.806,9.806,0,0,0-.313-1.011,4.865,4.865,0,0,0-.126-1.07c-.034-.178-.068-.358-.1-.538-.016-.091-.036-.181-.046-.272l-.016-.137-.019-.193c.013-.157.021-.306.024-.453l0-.216,0-.107a1.063,1.063,0,0,1,.1-.049c.138-.063.272-.128.4-.194l.2-.1.1-.053.062-.036c.318-.18.6-.415.906-.629a10.96,10.96,0,0,1,.949-.584c.16-.1.321-.192.48-.294.08-.051.159-.1.237-.156s.153-.112.227-.172c.163-.1.321-.207.477-.319s.3-.236.453-.357.3-.244.449-.369.305-.242.462-.361a13.017,13.017,0,0,1,1.745-1.618c.513-.62,1.091-1.192,1.6-1.837.442-.693.986-1.323,1.391-2.056.1-.184.2-.364.318-.541l.172-.265.163-.272c.052-.092.105-.184.155-.278s.088-.192.125-.292.071-.2.1-.3a2.229,2.229,0,0,0,.052-.319,10.666,10.666,0,0,0,.635-2.446,6.133,6.133,0,0,0,0-2.515,2.371,2.371,0,0,0-.017-.619c-.017-.1-.039-.2-.062-.3a2.862,2.862,0,0,0-.1-.291l-.027-.071-.054-.131a2.552,2.552,0,0,0-.127-.281c-.1-.192-.21-.383-.314-.575-.215-.4-.457-.79-.7-1.211l.137-.017c.395,0,.817,0,1.231.021a8.509,8.509,0,0,1,1.276.124c.262.042.332.061.467.091l.366.11a7.268,7.268,0,0,1,.711.26,8.635,8.635,0,0,1,2.55,1.474c.1.069.2.141.294.214s.181.158.27.24.174.163.26.248l.243.262c.08.088.162.174.24.262s.153.179.232.268l.237.259c.079.088.158.172.241.256s.165.167.24.257.142.184.21.278.133.19.2.287l.178.3.177.3.17.3c.115.2.24.386.368.573a7.884,7.884,0,0,1,1.145,2.415,22.169,22.169,0,0,0,.813,2.462,4.878,4.878,0,0,1,.527,2.461,4,4,0,0,1,.1.608c.023.2.035.408.04.612s.017.405.038.6a3.6,3.6,0,0,0,.092.6,2.97,2.97,0,0,0-.043.3c-.011.1-.017.2-.018.3a4.633,4.633,0,0,0,.036.588,11.292,11.292,0,0,1,.087,1.163c-.028.385-.063.765-.1,1.141a9.229,9.229,0,0,0-.032,1.121,4.434,4.434,0,0,1-.1,1.1c-.079.357-.158.706-.2,1.058a3,3,0,0,1-.221,1.032c-.058.166-.113.33-.158.5a2.032,2.032,0,0,0-.086.5c-.094.328-.187.649-.279.967a8.931,8.931,0,0,1-.325.927c.074.716-.452,1.2-.733,1.735a3.077,3.077,0,0,0-.182.416c-.053.142-.107.284-.16.422a1.628,1.628,0,0,1-.494.731,1.592,1.592,0,0,1-.357.778c-.18.216-.388.407-.569.608-.369.39-.557.906-.994,1.189a1.317,1.317,0,0,1-.483.549c-.1.071-.2.138-.289.21a1.643,1.643,0,0,0-.26.229,1.792,1.792,0,0,0-.284.188c-.09.066-.174.133-.257.2l-.241.212a2.966,2.966,0,0,1-.258.177c-.079.066-.158.13-.238.191s-.169.107-.255.155a2.459,2.459,0,0,1-.519.235,8.763,8.763,0,0,1-.944.4c-.231.068-.441.145-.646.191s-.4.1-.579.121-.347.049-.5.066l-.415.017c-.061,0-.119,0-.173,0l-.153-.009c-.095-.007-.172-.015-.235-.023-.125-.017-.188-.036-.188-.058" transform="translate(-4.09 -7.068)" fill="#b98e2e"/>
    <path id="パス_86" data-name="パス 86" d="M68.213,58.753c-.019-.012-.008-.079.031-.2.02-.061.046-.133.079-.22.017-.043.036-.089.056-.138s.033-.105.053-.163c.038-.114.082-.241.13-.383l.128-.469c.046-.169.075-.357.119-.553s.058-.413.091-.636q.015-.229.032-.47c.013-.163,0-.333.007-.506s-.022-.353-.032-.536-.032-.373-.043-.568a1.026,1.026,0,0,0-.116-.59,1.155,1.155,0,0,1-.109-.623,4.408,4.408,0,0,0-.395-1.3c-.092-.219-.167-.449-.241-.684a2.815,2.815,0,0,0-.337-.678,1.329,1.329,0,0,1-.342-.7,1.088,1.088,0,0,0-.43-.692c-.084-.111-.163-.225-.24-.342s-.161-.23-.239-.348c-.153-.24-.316-.479-.48-.722a2.2,2.2,0,0,0-.491-.755c-.212-.219-.444-.426-.658-.651a2.309,2.309,0,0,0-.551-.783,4.148,4.148,0,0,0-.371-.314c-.133-.1-.274-.187-.415-.276a2.345,2.345,0,0,0-1.518-1.324,8.591,8.591,0,0,0-1.7-1.246c-.6-.4-1.248-.734-1.863-1.154a5.4,5.4,0,0,1-1.054-.413,5.236,5.236,0,0,1-.492-.287c-.163-.1-.323-.211-.478-.329-.1-.018-.194-.04-.289-.066s-.189-.048-.282-.078a5.269,5.269,0,0,1-.542-.211c-.359-.148-.7-.344-1.061-.521a4.189,4.189,0,0,0-1.144-.354,4.875,4.875,0,0,1-1.167-.328c-.788-.208-1.608-.306-2.426-.438a5.479,5.479,0,0,0-2.509-.129c-.847.064-1.676.209-2.53.264a16.526,16.526,0,0,1-2.433.775c-.095.05-.191.1-.288.14l-.284.145c-.095.048-.193.091-.286.143l-.278.158a4.265,4.265,0,0,0-.532.359,3.489,3.489,0,0,0-.459.447,4.9,4.9,0,0,0-.828.959l-.09.13c-.027.039-.073.1-.067.1a.443.443,0,0,1-.038.065l-.022.032c.006.013.01.027.015.041a.8.8,0,0,1,.02.094l-1.272.613,0,0c-.066-.151-.133-.3-.2-.451l-.466-1.056,1.052.061a19.774,19.774,0,0,1,2.461.347,3.867,3.867,0,0,1,.732.213,5.193,5.193,0,0,1,.677.337l.323.192c.105.066.206.138.309.206s.209.133.311.2.2.139.307.2a9.47,9.47,0,0,0,1.094.958c.189.148.367.308.547.466a4.711,4.711,0,0,1,.478.527c.638.706,1.06,1.543,1.62,2.269A9.8,9.8,0,0,1,48,48.923a2.009,2.009,0,0,1,.362.571,4.235,4.235,0,0,1,.2.633,9.286,9.286,0,0,0,.3,1.274,8.824,8.824,0,0,0,.284,1.25,9.394,9.394,0,0,1,.281,1.229,6.819,6.819,0,0,1,.163,1.231c.011.2.022.41.046.612.011.1.026.2.044.3s.034.2.059.3c.008.2.029.4.051.6s.035.4.052.6a5.157,5.157,0,0,1-.016,1.181,3.6,3.6,0,0,1-.017,1.156c-.014.095-.029.191-.044.284l0,.035,0,.011-.007.022a.23.23,0,0,0-.011.046.368.368,0,0,0-.01.089l0,.011.01,0,.025,0a.3.3,0,0,0,.049.007l.285.132.485.21c.319.145.644.268.956.412a4.348,4.348,0,0,0,1.905.654,7.253,7.253,0,0,0,.949.211,3.357,3.357,0,0,1,.91.264c.3.066.6.154.9.212a3.281,3.281,0,0,0,.891.083,4.289,4.289,0,0,1,.859.194,1.089,1.089,0,0,0,.844-.068,1.741,1.741,0,0,1,.41.012c.135.013.27.033.405.051a1.267,1.267,0,0,0,.78-.095,1.566,1.566,0,0,1,.74-.149,4.807,4.807,0,0,0,.73-.03c.232-.045.461-.083.681-.139l.328-.077.314-.091a11.115,11.115,0,0,0,1.3-.466c.194-.1.389-.177.566-.274s.357-.182.514-.288a8.669,8.669,0,0,0,1.528-1.17c.748-.743,1.05-1.244,1.119-1.2.032.017-.032.187-.187.5a6.373,6.373,0,0,1-.91,1.249,8.125,8.125,0,0,1-1.958,1.544c-.216.119-.437.245-.678.353s-.49.218-.751.323a12.088,12.088,0,0,1-1.71.512c-.243.061-.49.138-.745.21a1.957,1.957,0,0,1-.8.048c-.27.019-.542.08-.824.106-.14.014-.281.028-.425.032a2.865,2.865,0,0,1-.433-.039,1.828,1.828,0,0,1-.89.078c-.3-.041-.6-.109-.906-.148s-.618-.076-.93-.133a8.942,8.942,0,0,0-.959-.119,3.279,3.279,0,0,1-.976-.182,6.364,6.364,0,0,0-.983-.26,7.08,7.08,0,0,0-2.011-.636,5.087,5.087,0,0,0-.994-.442l-.525-.182-.13-.051c-.047-.019-.071-.028-.158-.066-.145-.064-.291-.129-.435-.2l-.185-.126-.091-.059c-.012-.011-.035-.017-.041-.031l.01-.061c.024-.162.044-.316.059-.467l.02-.226.015-.2c0-.091.007-.182.007-.274-.009-.367-.063-.738-.1-1.109s-.033-.746-.048-1.124c0-.19,0-.381-.013-.571s-.032-.381-.061-.571c0-.1-.007-.192-.014-.289l-.034-.289c-.025-.193-.052-.386-.084-.578-.073-.383-.137-.772-.2-1.163a14.885,14.885,0,0,1-.565-2.34c-.289-.76-.506-1.554-.832-2.318-.4-.729-.687-1.52-1.14-2.235-.121-.173-.219-.362-.325-.545s-.2-.374-.315-.556a5,5,0,0,0-.37-.523,2.608,2.608,0,0,0-.48-.434,10.164,10.164,0,0,0-1.881-1.718A6.1,6.1,0,0,0,39.97,42.3a3.1,3.1,0,0,0-2.034-.367l.59-1c.1.16.209.321.314.481l0,0-1.312.633-.308-.541-.153-.274a2.913,2.913,0,0,1,.157-.27l.336-.541a2.162,2.162,0,0,1,.132-.193l.118-.155a7.411,7.411,0,0,1,1.053-1.119,8.629,8.629,0,0,1,2.5-1.634,6.1,6.1,0,0,1,1.367-.508c.232-.066.468-.11.7-.174s.462-.109.689-.182a5.161,5.161,0,0,1,.694-.145c.234-.03.468-.039.7-.055s.466-.009.7-.023.46-.017.689-.051a8.081,8.081,0,0,1,2.7.163,6.126,6.126,0,0,1,.653.12l.64.159a5.531,5.531,0,0,0,1.285.213c.425.075.856.127,1.275.214a2.614,2.614,0,0,1,1.157.538,5.645,5.645,0,0,1,1.149.471c.184.094.365.189.551.271.092.041.187.08.282.114s.19.069.289.1a2.8,2.8,0,0,0,.5.348,4.383,4.383,0,0,0,.533.267,10.652,10.652,0,0,1,1.07.5A20.757,20.757,0,0,0,60.91,40.9a12.073,12.073,0,0,1,1.746,1.342c.64.361.964,1.053,1.554,1.425.239.247.475.488.708.729a7.684,7.684,0,0,1,.653.748,1.562,1.562,0,0,1,.706.672c.158.283.289.576.454.838a8.329,8.329,0,0,0,.565.721,2.381,2.381,0,0,1,.253.371,1.387,1.387,0,0,1,.141.429,2.725,2.725,0,0,1,.756,1.506,4.756,4.756,0,0,0,.323.731,2.116,2.116,0,0,1,.226.737c.32.43.2.968.351,1.4a3.44,3.44,0,0,0,.076.671,3.392,3.392,0,0,1,.091.634,2.809,2.809,0,0,1,.057.6,2.671,2.671,0,0,1-.053.575c-.017.184-.021.363-.047.535s-.05.337-.074.5c-.055.235-.1.459-.157.664s-.117.395-.184.566l-.194.472c-.071.138-.137.262-.194.374-.031.054-.056.107-.085.153s-.059.09-.085.129c-.054.078-.1.143-.139.195-.077.1-.126.147-.145.136" transform="translate(-6.3 -6.172)" fill="#b98e2e"/>
    <path id="パス_87" data-name="パス 87" d="M68.069,20.192c-.019.012-.072-.032-.156-.126-.042-.047-.093-.107-.151-.178l-.092-.117c-.035-.041-.073-.081-.114-.128l-.265-.3c-.1-.105-.22-.221-.342-.346s-.273-.243-.42-.379-.327-.257-.5-.4l-.391-.263c-.132-.093-.283-.168-.431-.259s-.316-.157-.48-.24-.337-.159-.512-.246a1.018,1.018,0,0,0-.568-.2,1.149,1.149,0,0,1-.593-.217,4.425,4.425,0,0,0-1.321-.308c-.235-.032-.471-.079-.712-.133a2.805,2.805,0,0,0-.754-.048,1.312,1.312,0,0,1-.782-.055,1.085,1.085,0,0,0-.812.024c-.138.018-.276.03-.416.038s-.279.026-.422.032c-.284.013-.57.034-.864.056a2.193,2.193,0,0,0-.9.047c-.3.073-.59.172-.893.245a2.315,2.315,0,0,0-.951.086,4.312,4.312,0,0,0-.458.164c-.152.066-.3.144-.446.223a2.338,2.338,0,0,0-1.9.651,8.59,8.59,0,0,0-1.925.847c-.642.318-1.257.713-1.929,1.034a5.927,5.927,0,0,1-1.9,1.239,4.74,4.74,0,0,1-.862.784c-.307.238-.648.436-.981.658a4.172,4.172,0,0,0-.876.813c-.134.149-.262.306-.405.448a3.875,3.875,0,0,1-.463.4c-.289.285-.55.6-.816.914s-.516.643-.776.965a5.494,5.494,0,0,0-1.371,2.1c-.368.764-.659,1.552-1.041,2.317a16.366,16.366,0,0,1-.555,2.491c-.009.212-.036.425-.042.637l-.022.32,0,.318a3.678,3.678,0,0,0,.192,1.26,6.729,6.729,0,0,0,.784,1.959l-.638-.369c.158.006.314.015.472.031h0v1.411H38.25l-.015,0-.029,0-.059,0-.119-.007-.236-.016-1.2-.08.612-.931a19.768,19.768,0,0,1,1.576-2,4.318,4.318,0,0,1,1.182-.936l.328-.183.333-.163c.22-.115.444-.212.659-.328.061-.015.121-.03.179-.047s.121-.03.179-.046c.117-.034.231-.071.344-.114.226-.083.452-.162.673-.256s.449-.162.677-.238a5.292,5.292,0,0,1,.695-.149c.93-.2,1.863-.142,2.771-.262a9.782,9.782,0,0,1,2.693.17,2.566,2.566,0,0,1,1.321.119,9.346,9.346,0,0,0,1.251.379c.8.335,1.652.431,2.425.752a6.908,6.908,0,0,1,1.144.477,6.54,6.54,0,0,0,1.12.478,11.794,11.794,0,0,1,2.1,1.114,3.5,3.5,0,0,1,.877.5l.2.158.1.079.042.035.012.014a.427.427,0,0,0,.123.1.33.33,0,0,0,.064-.074l.275-.194.424-.317c.285-.2.552-.425.833-.623a2.245,2.245,0,0,0,.844-.582c.118-.12.229-.247.34-.371s.216-.254.331-.371a7.365,7.365,0,0,0,.654-.715,3.358,3.358,0,0,1,.68-.657c.105-.115.213-.226.321-.335s.21-.224.312-.337A3.358,3.358,0,0,0,65.8,31.7a4.179,4.179,0,0,1,.6-.646,1.081,1.081,0,0,0,.362-.766,1.793,1.793,0,0,1,.216-.348c.078-.111.165-.217.245-.325a1.275,1.275,0,0,0,.308-.724,1.544,1.544,0,0,1,.24-.714,4.7,4.7,0,0,0,.336-.646c.079-.223.159-.44.219-.658.032-.109.064-.216.1-.322s.052-.213.079-.318c.065-.235.1-.468.147-.694s.066-.448.1-.662a10.062,10.062,0,0,0,.055-1.215,8.687,8.687,0,0,0-.249-1.906c-.268-1.018-.55-1.529-.478-1.568.032-.019.147.12.34.412a6.4,6.4,0,0,1,.625,1.41,8.181,8.181,0,0,1,.357,2.464c0,.245,0,.5-.032.763s-.056.532-.095.811a12.122,12.122,0,0,1-.409,1.735c-.069.242-.125.493-.192.749a1.97,1.97,0,0,1-.356.718c-.119.243-.2.51-.319.766-.056.129-.117.257-.185.383a2.831,2.831,0,0,1-.249.356,1.828,1.828,0,0,1-.376.809c-.182.24-.395.464-.578.711s-.374.5-.58.738c-.1.121-.2.249-.3.376a4.594,4.594,0,0,0-.283.4,3.285,3.285,0,0,1-.643.755,6.319,6.319,0,0,0-.715.721,7,7,0,0,0-1.551,1.424,5.019,5.019,0,0,0-.879.641l-.418.363c-.075.06-.141.113-.224.176-.127.095-.258.187-.388.278-.138.065-.269.131-.395.2-.225-.181-.435-.334-.653-.479l-.138-.09-.1-.063c-.069-.041-.138-.081-.21-.12-.289-.143-.59-.268-.887-.4-.685-.3-1.3-.755-2.019-1.028a9.005,9.005,0,0,0-1.066-.467c-.368-.127-.734-.268-1.1-.412a14.657,14.657,0,0,1-2.3-.683c-.4-.07-.8-.145-1.2-.233s-.807-.161-1.22-.208c-.829-.021-1.657-.168-2.5-.136-.209.017-.42.011-.632.007s-.425,0-.639-.007a5.341,5.341,0,0,0-.638.057,2.883,2.883,0,0,0-.615.2,10.248,10.248,0,0,0-2.429.763,6.132,6.132,0,0,0-2.125,1.373,3.14,3.14,0,0,0-1.364,1.614c-.2-.34-.393-.68-.59-1.021l.236-.023.119-.012.059-.006.029,0,.015,0,.008,0h.007v1.455h0c-.158.011-.314.019-.472.025l-.407.015-.245-.391a6.815,6.815,0,0,1-.894-2.4,8.651,8.651,0,0,1-.142-2.979l0-.184.022-.182c.015-.121.035-.242.054-.361.041-.241.111-.473.167-.706s.14-.46.2-.69.138-.454.187-.687a5.582,5.582,0,0,1,.224-.671c.1-.216.2-.425.3-.633s.225-.406.329-.612a6.57,6.57,0,0,0,.3-.619,8.062,8.062,0,0,1,1.494-2.251,11.091,11.091,0,0,1,.887-.978,5.394,5.394,0,0,0,.828-1c.14-.165.273-.336.41-.5s.268-.337.415-.493a2.6,2.6,0,0,1,1.041-.732,5.757,5.757,0,0,1,.982-.758,5.97,5.97,0,0,0,.978-.729,2.82,2.82,0,0,0,.551-.259,4.945,4.945,0,0,0,.5-.327c.158-.12.315-.24.476-.353s.32-.226.488-.324a20.085,20.085,0,0,0,2.038-1.043,12.184,12.184,0,0,1,2.032-.84c.632-.372,1.392-.309,2.007-.633l.985-.25a8.178,8.178,0,0,1,.972-.192,1.563,1.563,0,0,1,.934-.274c.324,0,.644.037.953.026a8.148,8.148,0,0,0,.905-.128,2.319,2.319,0,0,1,.447-.033,1.4,1.4,0,0,1,.442.092,1.565,1.565,0,0,1,.859-.084c.28.036.553.133.82.182a4.924,4.924,0,0,0,.794.088,2.08,2.08,0,0,1,.75.172,1.356,1.356,0,0,1,.725.143,3.5,3.5,0,0,0,.661.253,3.238,3.238,0,0,0,.618.27,3.454,3.454,0,0,1,.594.239,2.926,2.926,0,0,1,.553.253,2.724,2.724,0,0,1,.468.333c.152.107.305.2.439.309l.392.313c.175.165.348.313.494.468s.284.3.4.444.216.279.31.4.159.249.226.355c.032.054.065.1.091.15s.047.1.069.138c.041.084.074.158.1.216.049.117.064.183.045.194" transform="translate(-6.156 -2.604)" fill="#b98e2e"/>
    <path id="パス_88" data-name="パス 88" d="M61.275,20.825c-.017.086-.137.152-.336.2-.033.007-.068.015-.105.022a.154.154,0,0,1-.118.018c-.025-.119-.109.2-.132.022-.036-.057-.089-.014-.141.018s-.09-.084-.153.017c-.071.216-.086-.261-.165.017-.06.057-.115.038-.174.02-.051-.175-.122-.007-.183.019-.056-.214-.125-.122-.194.022-.061-.284-.133-.242-.2.025-.068.008-.141-.105-.211.022-.071.022-.143.079-.219.032-.066.193-.139.188-.226.029-.065.206-.146.136-.233.036s-.144.193-.24.036c-.083-.007-.159.063-.246.042-.093-.072-.193-.154-.251.045-.079.062-.153.14-.258.049-.05.23-.152.151-.261.055-.08.051-.2-.087-.267.054-.1-.012-.157.134-.269.062-.106-.042-.213-.085-.27.062s-.19-.007-.265.067c-.142-.172-.156.111-.26.065-.079.046-.2-.06-.254.07-.072.063-.141.126-.25.068.02.321-.185-.022-.241.07-.123-.1-.15.074-.236.068-.056.084-.2-.084-.231.066-.082,0-.106.153-.222.069-.011.172-.188-.065-.214.064a.573.573,0,0,1-.207.063c-.163-.2-.143.018-.2.061-.072,0-.062.182-.19.057-.066.009-.17-.066-.181.052-.038.059-.265-.267-.172.052-.024.077-.211-.175-.161.045.044.2-.105.025-.153.04l-.143.032c-.4.1-.674.11-.74,0s.115-.391.52-.733c.04-.034.011-.211.128-.1.051-.025.044-.168.143-.106-.048-.232.09-.093.153-.111.051-.04.144,0,.167-.109.007-.148.153,0,.179-.111.124.1.173.035.191-.114.122.094.127-.087.2-.111.153.164.169,0,.215-.111s.164-.033.224-.113c.092,0,.141-.109.236-.106.047-.122.12-.187.245-.1.064-.094.167-.077.256-.1.061-.107.181-.046.265-.095.079-.07.247.156.274-.095.085-.056.2-.017.282-.085a.338.338,0,0,0,.289-.082c.153.2.216.039.3-.071a.333.333,0,0,1,.3-.066.715.715,0,0,1,.3-.052c.086-.085.211.061.292-.048s.208.072.289-.035c.085-.078.177-.128.284-.027.094-.013.207.183.277-.017.085-.053.155-.319.269-.008.084-.088.187.135.264,0,.1.229.17,0,.254.008.085.042.167.117.245.012s.159.062.235.024c.077-.133.148.177.224.027.071.032.144-.021.211.032.083-.311.138.009.2.04.061.049.143-.2.187.042.08-.235.124-.026.175.046s.121-.087.159.052c.071-.161.092.1.146.051.033.116.092.017.132.052.048-.032.086-.011.115.056.035.019.069.038.1.056.185.11.273.211.254.3" transform="translate(-8.897 -3.396)" fill="#b98e2e"/>
    <path id="パス_89" data-name="パス 89" d="M68.075,51.407c-.084.027-.2-.045-.338-.193-.022-.026-.046-.053-.07-.08s-.069-.053-.074-.094c.09-.081-.232.006-.085-.1.031-.061-.032-.085-.086-.114s.027-.122-.091-.125c-.224.047.183-.2-.1-.133-.08-.023-.09-.08-.105-.142.129-.13-.053-.108-.107-.149.158-.155.042-.169-.116-.157.218-.195.143-.237-.122-.163-.042-.054.02-.174-.126-.171-.055-.051-.138-.084-.135-.174-.2.039-.233-.027-.138-.181-.211.047-.191-.059-.148-.184s-.239-.028-.152-.19c-.036-.075-.133-.107-.159-.192.016-.117.036-.244-.165-.2-.092-.038-.2-.062-.17-.2-.226.071-.206-.056-.178-.2-.085-.044-.026-.219-.181-.2-.036-.09-.2-.07-.188-.2-.016-.113-.031-.228-.188-.2s-.088-.17-.191-.2c.08-.21-.175-.08-.186-.194-.079-.045-.049-.206-.187-.185-.09-.031-.18-.059-.183-.183-.269.177-.074-.171-.182-.174.022-.154-.138-.092-.177-.171-.1-.006-.029-.217-.172-.166-.046-.07-.186-.016-.171-.157-.155.075-.037-.2-.163-.156a.567.567,0,0,1-.158-.148c.088-.238-.09-.114-.153-.14-.039-.061-.187.036-.143-.138-.041-.051-.029-.179-.137-.13-.07,0,.1-.362-.129-.122-.079.017.046-.271-.121-.119s-.073-.078-.109-.112-.067-.072-.1-.106c-.29-.3-.431-.531-.366-.645s.4-.1.895.084c.048.017.187-.1.153.061.046.031.168-.047.163.068.177-.155.126.034.172.078.061.026.07.126.178.09.131-.068.075.134.187.1-.024.156.056.167.193.108-.02.153.14.066.2.12-.066.215.086.145.2.13s.109.126.208.138c.042.083.167.069.211.153.13-.02.223.01.214.16.113.007.149.106.216.17.124,0,.131.134.216.182s-.012.292.217.189c.091.048.114.164.214.2.051.09.1.182.216.209-.093.231.075.208.21.223.119.031.163.129.207.226a.721.721,0,0,1,.194.231c.116.033.053.214.187.231s.042.216.175.232c.11.035.2.09.165.232.058.074-.055.27.153.231.088.047.354-.025.143.229.117.029-.024.229.134.227-.148.2.081.149.119.224.007.094-.017.2.112.218s.027.167.1.216c.154,0-.078.217.087.207.009.078.091.114.079.2.31-.084.061.124.065.193-.012.078.245.026.056.184.244-.049.085.095.048.173s.137.062.035.164c.175-.017-.044.132.028.153-.083.086.032.088.021.139.051.026.053.07.009.128,0,.041,0,.079,0,.114,0,.214-.046.341-.13.369" transform="translate(-10.558 -7.574)" fill="#b98e2e"/>
    <path id="パス_90" data-name="パス 90" d="M44.9,72.319c-.067-.059-.061-.2,0-.39.011-.033.022-.066.035-.1a.159.159,0,0,1,.043-.112c.116.038-.121-.2.047-.124.069,0,.057-.07.055-.133s.119-.036.063-.141c-.154-.17.267.056.066-.152-.02-.08.026-.119.07-.161.177.046.067-.1.076-.167.211.059.167-.049.077-.179.278.09.278.006.08-.189.027-.062.161-.069.085-.193.017-.073,0-.163.083-.206-.135-.153-.094-.215.087-.21-.146-.158-.045-.193.086-.221s-.1-.221.088-.226c.047-.069.025-.168.086-.235.109-.045.23-.09.087-.24-.014-.1-.045-.2.086-.248-.174-.159-.054-.206.085-.253,0-.1.176-.132.085-.259.061-.078-.036-.2.081-.265.091-.07.182-.14.081-.265s.1-.162.075-.263c.221-.036-.017-.192.075-.258,0-.091.153-.146.066-.255-.017-.094-.037-.185.067-.25-.289-.144.11-.15.06-.245.147-.058.012-.166.06-.24-.045-.089.173-.134.058-.231.036-.075-.079-.17.051-.227-.144-.1.152-.131.053-.219a.529.529,0,0,1,.05-.21c.25-.042.054-.135.044-.2.034-.066-.125-.144.046-.193.027-.061.142-.116.046-.183-.033-.062.362-.1.041-.175-.056-.059.257-.1.041-.162-.2-.064.031-.1.042-.153s.029-.1.041-.139c.114-.4.243-.64.375-.64s.281.294.376.816c.007.052.176.116.023.163,0,.056.124.122.022.175.224.075.035.126.019.188.009.065-.073.125.011.2.125.08-.079.132.007.211-.146.058-.117.132,0,.222-.143.059.01.154-.006.231-.219.052-.083.148-.011.241s-.054.159-.015.25c-.051.078.024.177-.027.257.081.1.1.2-.032.267.05.1-.016.182-.038.272.061.109-.051.181-.051.278.022.1-.257.135-.052.284,0,.1-.086.181-.07.287a.341.341,0,0,0-.073.293c-.245.035-.143.167-.088.293a.34.34,0,0,1-.092.293.71.71,0,0,1-.1.284c.032.116-.158.153-.1.278s-.167.143-.114.266c.026.114.022.216-.118.259-.036.089-.263.089-.124.25,0,.1.2.294-.128.239.034.115-.21.093-.129.229-.248-.029-.09.144-.135.216-.078.054-.185.087-.132.206s-.133.108-.138.192c.076.134-.227.042-.136.181-.064.046-.055.136-.134.168.228.226-.077.114-.136.153s.1.225-.129.142c.163.187-.041.12-.126.128s.014.149-.125.113c.1.143-.136.028-.118.1-.117-.028-.061.071-.109.088,0,.057-.036.081-.107.072-.034.021-.066.041-.1.059-.187.1-.319.129-.385.071" transform="translate(-7.662 -10.83)" fill="#b98e2e"/>
    <path id="パス_91" data-name="パス 91" d="M14.264,63.2c.018-.086.138-.151.336-.2l.106-.022a.155.155,0,0,1,.117-.017c.026.119.112-.2.132-.022.038.056.09.014.142-.019s.091.085.153-.017c.07-.217.085.26.165-.018.06-.057.116-.037.174-.02.05.176.121.008.184-.018.054.214.125.122.193-.022.061.286.133.243.2-.025.068-.008.14.105.211-.022.071-.022.143-.079.218-.031.068-.193.14-.19.227-.029.064-.206.144-.136.234-.036s.143-.192.239-.037c.083.007.159-.062.247-.041.093.072.192.153.251-.046.079-.061.153-.139.256-.048.051-.231.152-.151.261-.054.081-.052.2.087.267-.056.1.013.158-.134.27-.062.1.043.212.087.269-.061s.191.007.264-.068c.143.174.157-.11.262-.064.078-.046.2.061.254-.071.071-.061.14-.125.248-.066-.018-.322.186.022.244-.07.122.1.148-.075.235-.069.055-.083.2.083.23-.067.082,0,.106-.152.221-.068.011-.173.189.066.216-.064a.558.558,0,0,1,.206-.062c.163.195.144-.019.2-.062.073,0,.062-.181.19-.056.066-.009.172.066.182-.052.037-.059.263.266.17-.051.025-.078.213.173.163-.046-.045-.2.1-.024.152-.039l.143-.034c.405-.1.674-.109.741,0s-.114.391-.518.734c-.041.032-.011.209-.13.1-.049.024-.042.169-.14.106.046.231-.092.093-.153.11-.052.041-.145,0-.167.11-.007.148-.153,0-.18.111-.123-.1-.173-.035-.19.114-.123-.094-.128.088-.2.111-.153-.163-.169,0-.214.112s-.164.032-.225.111c-.092,0-.141.11-.235.107-.049.121-.121.187-.246.105-.062.093-.167.076-.255.1-.063.108-.182.047-.266.1-.079.07-.245-.157-.272.095-.086.055-.2.017-.284.084a.337.337,0,0,0-.289.082c-.153-.195-.217-.039-.3.07a.331.331,0,0,1-.3.066.733.733,0,0,1-.3.054c-.086.085-.212-.062-.293.047s-.208-.073-.289.034c-.086.078-.177.128-.283.027-.095.013-.206-.182-.278.018-.085.052-.156.319-.27.008-.083.087-.185-.135-.263,0-.1-.229-.169,0-.254-.008-.085-.042-.167-.116-.245-.011s-.159-.062-.235-.025c-.079.134-.15-.177-.224-.027-.072-.031-.145.021-.213-.032-.082.31-.137-.011-.2-.041-.061-.049-.143.2-.187-.042-.08.235-.124.026-.173-.046s-.123.087-.161-.051c-.071.16-.091-.1-.145-.052-.034-.115-.093-.017-.131-.051-.048.032-.088.011-.115-.056-.036-.018-.069-.037-.1-.056-.184-.109-.271-.21-.254-.3" transform="translate(-2.436 -10.452)" fill="#b98e2e"/>
    <path id="パス_92" data-name="パス 92" d="M8.033,31.761c.084-.027.2.045.337.193.024.025.046.052.071.081a.154.154,0,0,1,.075.093c-.09.082.231,0,.084.1-.031.061.033.086.088.114s-.029.121.09.124c.225-.047-.183.2.1.133.08.023.09.081.1.142-.128.13.053.108.108.149-.159.154-.042.168.115.158-.217.194-.143.236.123.163.041.054-.02.174.126.171.055.051.138.085.135.174.2-.038.234.027.138.182.21-.048.19.057.148.183s.238.028.151.19c.037.075.133.107.159.192-.015.117-.036.244.165.2.093.038.2.062.172.2.224-.072.206.056.177.2.086.045.026.219.182.2.036.09.195.07.188.2.016.113.031.228.189.2s.087.169.191.195c-.08.209.173.08.185.194.079.046.05.206.188.185.09.031.178.059.183.183.269-.177.074.171.182.174-.024.155.138.092.177.171.1.006.029.218.172.167.046.069.186.016.17.158.155-.077.038.2.163.154a.581.581,0,0,1,.158.148c-.089.239.088.116.152.142.041.061.188-.036.144.136.041.053.029.181.136.132.07,0-.1.362.13.123.08-.017-.045.271.119.118s.073.078.111.112l.1.107c.291.3.432.531.367.645s-.4.1-.9-.084c-.05-.019-.188.095-.153-.061-.046-.031-.167.046-.163-.07-.177.155-.126-.032-.172-.078-.061-.025-.071-.125-.179-.09-.132.068-.075-.134-.187-.1.024-.156-.056-.168-.194-.109.021-.153-.138-.066-.2-.119.066-.216-.085-.148-.2-.131s-.11-.126-.21-.138c-.041-.083-.165-.068-.21-.152-.129.019-.223-.011-.214-.161-.113-.007-.149-.106-.216-.17-.124,0-.13-.134-.215-.182-.1-.033.012-.291-.219-.188-.09-.047-.114-.165-.214-.2-.049-.092-.1-.184-.216-.211.094-.23-.075-.207-.21-.222-.119-.031-.163-.129-.206-.226a.717.717,0,0,1-.2-.231c-.115-.033-.052-.214-.187-.23s-.041-.217-.174-.233c-.11-.035-.2-.09-.166-.232-.058-.074.056-.27-.153-.231-.089-.047-.354.025-.143-.23-.117-.029.024-.229-.133-.226.148-.2-.081-.149-.12-.225-.006-.095.018-.2-.111-.218s-.027-.167-.1-.216c-.154,0,.078-.217-.089-.207-.008-.078-.09-.114-.077-.2-.311.083-.061-.125-.066-.195.013-.077-.245-.023-.056-.182-.243.048-.084-.095-.047-.175s-.138-.061-.035-.164c-.176.018.044-.131-.028-.152.083-.086-.032-.088-.021-.14-.052-.025-.052-.07-.01-.127,0-.041,0-.079,0-.114,0-.215.046-.341.13-.369" transform="translate(-1.345 -5.424)" fill="#b98e2e"/>
    <path id="パス_93" data-name="パス 93" d="M31.807,10.463c.066.058.062.2,0,.39-.011.032-.022.066-.035.1a.161.161,0,0,1-.044.112c-.115-.039.122.2-.046.124-.068,0-.058.071-.056.133s-.118.037-.062.14c.153.171-.267-.055-.066.153.02.08-.025.119-.07.161-.177-.045-.067.1-.076.168-.212-.059-.167.049-.077.179-.278-.09-.277-.006-.08.187-.027.064-.161.07-.085.195-.017.073,0,.162-.082.2.135.155.093.216-.088.211.146.158.045.193-.086.22s.1.22-.087.226c-.048.069-.025.169-.087.234-.109.045-.23.091-.087.241.015.1.046.2-.085.247.173.16.054.207-.085.254,0,.1-.176.132-.085.258-.061.078.036.2-.081.266-.09.069-.182.139-.081.265s-.1.16-.074.263c-.221.036.017.19-.075.258,0,.091-.153.146-.065.255.017.094.037.184-.068.25.289.144-.111.15-.06.245-.146.058-.011.166-.059.239.044.09-.174.134-.058.232-.036.074.078.17-.051.227.144.1-.151.131-.052.218a.555.555,0,0,1-.049.21c-.251.043-.056.136-.045.2-.034.065.124.144-.047.192-.025.062-.141.115-.046.184.033.062-.362.095-.04.173.055.061-.258.1-.041.163.2.064-.032.1-.042.153s-.029.095-.042.139c-.114.4-.242.639-.375.64s-.281-.3-.375-.817c-.008-.052-.177-.115-.024-.163,0-.056-.124-.123-.022-.177-.223-.075-.034-.125-.02-.187-.008-.066.074-.124-.011-.2-.124-.081.079-.133-.007-.212.148-.057.117-.133,0-.221.141-.059-.012-.154,0-.232.22-.051.085-.148.011-.24s.056-.159.016-.251c.051-.077-.023-.177.027-.258-.082-.1-.1-.2.032-.265-.05-.1.017-.182.038-.273-.061-.108.051-.18.051-.278-.022-.1.258-.135.054-.283,0-.1.085-.181.069-.288a.342.342,0,0,0,.074-.292c.245-.035.143-.168.086-.293a.339.339,0,0,1,.093-.293.717.717,0,0,1,.1-.284c-.03-.116.159-.152.106-.277s.166-.143.113-.267c-.026-.114-.022-.217.119-.259.035-.088.261-.089.122-.25,0-.1-.2-.294.128-.238-.032-.115.211-.093.129-.23.248.03.09-.145.135-.215.079-.054.185-.088.133-.206s.132-.107.138-.192c-.076-.133.227-.041.136-.18.063-.046.054-.137.134-.168-.229-.226.076-.114.135-.153s-.1-.225.13-.141c-.163-.187.04-.12.126-.128s-.014-.149.125-.114c-.1-.142.135-.027.117-.1.117.028.061-.072.11-.09,0-.057.035-.08.108-.071.034-.022.066-.041.1-.058.187-.1.318-.129.384-.071" transform="translate(-4.844 -1.782)" fill="#b98e2e"/>
  </g>
</svg>
