<svg xmlns="http://www.w3.org/2000/svg" width="371.332" height="60" viewBox="0 0 371.332 60">
  <g id="グループ_51" data-name="グループ 51" transform="translate(-245 -7620)" style="mix-blend-mode: color-dodge;isolation: isolate">
    <g id="グループ_49" data-name="グループ 49" transform="translate(140.6 7334.5)" opacity="0.997" style="mix-blend-mode: multiply;isolation: isolate">
      <g id="グループ_1" data-name="グループ 1" transform="translate(242.56 335.33)">
        <path id="パス_1" data-name="パス 1" d="M199.5,320h3.051c2.034,0,3.487.726,3.487,2.76s-1.453,2.906-3.487,2.906h-1.743v4.068H199.5V320Zm2.906,4.649c1.453,0,2.324-.581,2.324-1.889s-.872-1.743-2.324-1.743h-1.6v3.632Zm0,.581,1.017-.581,3.051,5.085h-1.453Z" transform="translate(-199.5 -319.709)" fill="#fff"/>
        <path id="パス_2" data-name="パス 2" d="M207.5,324.885c0-3.2,1.743-5.085,4.213-5.085s4.213,1.889,4.213,5.085-1.743,5.085-4.213,5.085S207.5,327.936,207.5,324.885Zm7.119,0c0-2.47-1.162-3.923-2.906-3.923s-2.906,1.453-2.906,3.923,1.162,4.068,2.906,4.068S214.619,327.354,214.619,324.885Z" transform="translate(-195.878 -319.8)" fill="#fff"/>
        <path id="パス_3" data-name="パス 3" d="M217.345,320h2.76c2.179,0,3.632.726,3.632,2.906s-1.453,3.051-3.632,3.051h-1.6v3.923H217.2v-9.734Zm2.615,4.794c1.743,0,2.47-.581,2.47-2.034s-.872-1.889-2.615-1.889h-1.453v3.923h1.6Z" transform="translate(-191.486 -319.709)" fill="#fff"/>
        <path id="パス_4" data-name="パス 4" d="M225.645,320h2.76c2.179,0,3.632.726,3.632,2.906s-1.453,3.051-3.632,3.051h-1.6v3.923H225.5v-9.734Zm2.76,4.794c1.743,0,2.47-.581,2.47-2.034s-.872-1.889-2.615-1.889h-1.453v3.923h1.6Z" transform="translate(-187.728 -319.709)" fill="#fff"/>
        <path id="パス_5" data-name="パス 5" d="M233.6,324.885c0-3.2,1.743-5.085,4.213-5.085s4.213,1.889,4.213,5.085-1.743,5.085-4.213,5.085S233.6,327.936,233.6,324.885Zm6.973,0c0-2.47-1.162-3.923-2.906-3.923s-2.906,1.453-2.906,3.923,1.162,4.068,2.906,4.068S240.573,327.354,240.573,324.885Z" transform="translate(-184.06 -319.8)" fill="#fff"/>
        <path id="パス_6" data-name="パス 6" d="M243.3,320h1.307l3.487,6.1,1.017,2.034h0c0-1.017-.145-2.034-.145-3.051V320h1.162v9.734h-1.307l-3.487-6.1-1.017-2.034h0c0,1.017.145,2.034.145,3.051v5.085H243.3Z" transform="translate(-179.668 -319.709)" fill="#fff"/>
        <path id="パス_7" data-name="パス 7" d="M252.1,324.885c0-3.2,1.889-5.085,4.5-5.085s2.179.581,2.76,1.162l-.726.872a2.438,2.438,0,0,0-2.034-.872c-2.034,0-3.2,1.453-3.2,3.923s1.162,3.923,3.2,3.923,1.307-.145,1.743-.581v-2.47h-2.034v-1.017h3.2v4.068a3.934,3.934,0,0,1-3.051,1.162c-2.615,0-4.358-1.889-4.358-5.085Z" transform="translate(-175.684 -319.8)" fill="#fff"/>
        <path id="パス_8" data-name="パス 8" d="M261.4,320h1.307v9.734H261.4Z" transform="translate(-171.473 -319.709)" fill="#fff"/>
      </g>
      <g id="グループ_4" data-name="グループ 4" transform="translate(104.4 285.5)">
        <g id="グループ_2" data-name="グループ 2">
          <path id="パス_9" data-name="パス 9" d="M129.969,323.418l-9.007-3.777A20.675,20.675,0,0,0,113.7,317.9a8.626,8.626,0,0,0-4.5,1.162,12.947,12.947,0,0,0-4.649,4.649H104.4a13.42,13.42,0,0,1,4.939-4.939,13.024,13.024,0,0,1,6.392-1.889,20.309,20.309,0,0,1,7.845,1.889l15.254,6.392a16.2,16.2,0,0,0,6.538,1.453,14.32,14.32,0,0,0,5.521-1.017,20.8,20.8,0,0,0,6.828-4.794h.145a16.284,16.284,0,0,1-7.119,4.939,41.018,41.018,0,0,1-3.923,1.307,14.635,14.635,0,0,1-3.632.436,18.056,18.056,0,0,1-6.828-1.453l-6.392-2.615Zm-15.835-8.281v-26.15a3.987,3.987,0,0,0-.291-1.889c-.436-1.017-.872-1.453-1.453-1.453h0c0-.145,5.811-.145,5.811-.145h0a1.943,1.943,0,0,0-1.162,1.017,3.868,3.868,0,0,0-.436,1.743V316.59h-.872a14.367,14.367,0,0,0-2.179.145h0a11.032,11.032,0,0,0,.581-1.6Z" transform="translate(-104.4 -285.5)" fill="#fff"/>
          <path id="パス_10" data-name="パス 10" d="M130.153,313.96a5.788,5.788,0,0,0,.436-2.47v-19.9a5.789,5.789,0,0,0-.436-2.47,1.362,1.362,0,0,0-1.162-.872h0c0-.145,18.015-.145,18.015-.145l.581,2.76h-.436a3.371,3.371,0,0,0-2.76-1.889,27.845,27.845,0,0,0-5.666-.436h-5.811V301.32h7.409a3.961,3.961,0,0,0,2.324-.581c.581-.291,1.017-.726,1.017-1.017h.291v3.922h-.291c0-.436-.291-.872-1.017-1.162a5.473,5.473,0,0,0-2.324-.581h-7.409V314.4h6.392a20.2,20.2,0,0,0,5.666-.436,4.187,4.187,0,0,0,2.76-1.743h.291l-.581,2.76H128.7a1.943,1.943,0,0,0,1.162-1.017Z" transform="translate(-93.397 -284.323)" fill="#fff"/>
          <path id="パス_11" data-name="パス 11" d="M177.016,301.611a11.934,11.934,0,0,0-1.889-6.683,14.6,14.6,0,0,0-4.939-4.939,11.934,11.934,0,0,0-6.683-1.889H152.9a2.686,2.686,0,0,1,1.308,1.017,5.789,5.789,0,0,1,.436,2.47v19.9a4.975,4.975,0,0,1-.581,2.615,1.482,1.482,0,0,1-1.162.726h0c0,.145,10.46.145,10.46.145a11.934,11.934,0,0,0,6.683-1.889,13.426,13.426,0,0,0,4.939-4.939,13.227,13.227,0,0,0,1.889-6.683Zm-2.47,0a13.307,13.307,0,0,1-1.6,6.247,13.014,13.014,0,0,1-4.5,4.794,11.028,11.028,0,0,1-5.811,1.889h-5.375V288.826h5.521a10.477,10.477,0,0,1,5.811,1.743,11.6,11.6,0,0,1,4.358,4.794,12.142,12.142,0,0,1,1.6,6.247Z" transform="translate(-82.44 -284.323)" fill="#fff"/>
          <path id="パス_12" data-name="パス 12" d="M180.553,313.378a7.36,7.36,0,0,0,.291-1.889v-19.9a3.988,3.988,0,0,0-.291-1.889c-.291-1.017-.872-1.453-1.453-1.453h0c0-.145,5.811-.145,5.811-.145h0a1.943,1.943,0,0,0-1.162,1.017,4.021,4.021,0,0,0-.436,1.889v21.211a4.021,4.021,0,0,0,.436,1.889,1.362,1.362,0,0,0,1.162.872h0c0,.145-5.811.145-5.811.145h0c.581-.145,1.017-.726,1.453-1.6Z" transform="translate(-70.577 -284.323)" fill="#fff"/>
          <path id="パス_13" data-name="パス 13" d="M216.861,314.977h0a3.244,3.244,0,0,1-1.017-1.017,4.909,4.909,0,0,1-.872-1.743c-1.307-4.358-4.358-12.349-8.862-24.116h-2.47c-2.615,6.392-4.794,12.058-6.683,17v.581c-.581,1.162-1.307,3.341-2.47,6.538-.581,1.6-1.307,2.47-1.889,2.47h0a19.472,19.472,0,0,0,2.906.145h0c-.436-.145-.726-.581-.726-1.307s0-.872.291-1.307c.581-2.034,1.453-4.213,2.324-6.683a16.671,16.671,0,0,1,2.034-.291,7.786,7.786,0,0,1,3.341.436,23.923,23.923,0,0,1,3.051,1.307c1.017.436,1.889.872,2.76,1.162a7.863,7.863,0,0,0,2.76.436,20.72,20.72,0,0,1,1.307,3.923c0,.291.145.726.145,1.017a1.067,1.067,0,0,1-.291.872.755.755,0,0,1-.581.291h0c0,.145,4.939.145,4.939.145Zm-5.811-6.828a6.261,6.261,0,0,1-2.47-.436,17.67,17.67,0,0,1-2.47-1.162,24.87,24.87,0,0,0-3.2-1.307,12,12,0,0,0-3.487-.436c-1.307,0-1.307,0-1.743.291,1.743-4.649,3.777-9.879,6.247-15.981,3.051,7.845,5.521,14.237,7.264,19.031Z" transform="translate(-64.464 -284.323)" fill="#fff"/>
          <path id="パス_14" data-name="パス 14" d="M239.863,288.2h0c-.872.145-1.307,1.017-1.307,2.76v23.971h-.581L220.4,292.122v20.048q0,2.615,1.307,2.615h0a23.53,23.53,0,0,1-3.2.145h0v-.145q1.308,0,1.307-2.615V291.4l-2.615-3.2h3.2l17.579,22.809V290.96c0-1.743-.436-2.615-1.162-2.615h0a23.53,23.53,0,0,1,3.2-.145Z" transform="translate(-53.326 -284.277)" fill="#fff"/>
        </g>
        <g id="グループ_3" data-name="グループ 3" transform="translate(206.005 3.487)">
          <path id="パス_15" data-name="パス 15" d="M272.508,314.441a2.8,2.8,0,0,0,.436-1.453V291.632a3.987,3.987,0,0,0-.291-1.889c-.291-1.017-.872-1.6-1.453-1.6h0c0-.145,5.956-.145,5.956-.145h0a1.943,1.943,0,0,0-1.162,1.017,4.021,4.021,0,0,0-.436,1.889v23.971H282.1a21.352,21.352,0,0,0,5.811-.436,4.164,4.164,0,0,0,2.906-1.889h.291l-.581,2.76H271.345A2.259,2.259,0,0,0,272.508,314.441Z" transform="translate(-234.88 -287.855)" fill="#fff"/>
          <path id="パス_16" data-name="パス 16" d="M293.253,313.76a7.358,7.358,0,0,0,.291-1.889V291.532a3.987,3.987,0,0,0-.291-1.889c-.291-1.017-.872-1.6-1.453-1.6h0c0-.145,5.956-.145,5.956-.145h0a1.943,1.943,0,0,0-1.162,1.017,4.021,4.021,0,0,0-.436,1.889v21.646a4.022,4.022,0,0,0,.436,1.889,1.362,1.362,0,0,0,1.162.872h0c0,.145-5.956.145-5.956.145h0a2.3,2.3,0,0,0,1.453-1.743Z" transform="translate(-225.553 -287.9)" fill="#fff"/>
          <path id="パス_17" data-name="パス 17" d="M328.2,287.9h0c-.872.145-1.307,1.017-1.307,2.906v24.552h-.581L308.3,291.968v20.484c0,1.743.436,2.76,1.307,2.76h0a23.541,23.541,0,0,1-3.2.145h0v-.145q1.308,0,1.307-2.615V291.241L305.1,287.9h3.2l17.869,23.39V290.806q0-2.615-1.307-2.615h0a23.536,23.536,0,0,1,3.2-.145Z" transform="translate(-219.531 -287.9)" fill="#fff"/>
          <path id="パス_18" data-name="パス 18" d="M331.753,313.76a7.359,7.359,0,0,0,.291-1.889V291.532a3.987,3.987,0,0,0-.291-1.889c-.291-1.017-.872-1.6-1.453-1.6h0c0-.145,5.956-.145,5.956-.145h0a1.943,1.943,0,0,0-1.162,1.017,4.021,4.021,0,0,0-.436,1.889v21.646a4.022,4.022,0,0,0,.436,1.889,1.362,1.362,0,0,0,1.162.872h0c0,.145-5.956.145-5.956.145h0a2.3,2.3,0,0,0,1.453-1.743Z" transform="translate(-208.121 -287.9)" fill="#fff"/>
          <path id="パス_19" data-name="パス 19" d="M357.537,315.358a16.045,16.045,0,0,1-5.375-.872,13.035,13.035,0,0,1-6.392-4.939,13.591,13.591,0,0,1-2.47-7.845,12.239,12.239,0,0,1,1.889-6.973,12.806,12.806,0,0,1,5.085-4.939,15.575,15.575,0,0,1,7.409-1.889,16.425,16.425,0,0,1,5.375.726,11.406,11.406,0,0,1,3.777,1.743l.726,3.777h-.291a9.431,9.431,0,0,0-2.47-3.341,11.237,11.237,0,0,0-7.119-2.179,12.329,12.329,0,0,0-8.136,3.051,13.99,13.99,0,0,0-3.922,9.879,16.988,16.988,0,0,0,.872,5.085,14.7,14.7,0,0,0,3.632,5.375,10.237,10.237,0,0,0,5.666,2.615c.872,0,1.453.145,2.034.145a14.21,14.21,0,0,0,3.777-.436,7.8,7.8,0,0,0,3.2-1.889A7.076,7.076,0,0,0,365.963,311a6.031,6.031,0,0,0,1.017-1.889h.436l-.726,3.632a10.3,10.3,0,0,1-4.213,1.889,19.128,19.128,0,0,1-4.939.581Z" transform="translate(-202.235 -287.9)" fill="#fff"/>
          <path id="パス_20" data-name="パス 20" d="M260.437,315.358a16.045,16.045,0,0,1-5.375-.872,13.035,13.035,0,0,1-6.392-4.939,13.591,13.591,0,0,1-2.47-7.845,12.239,12.239,0,0,1,1.889-6.973,12.806,12.806,0,0,1,5.085-4.939,15.575,15.575,0,0,1,7.409-1.889,16.425,16.425,0,0,1,5.375.726,11.406,11.406,0,0,1,3.777,1.743l.726,3.777h-.291a9.431,9.431,0,0,0-2.47-3.341,11.237,11.237,0,0,0-7.119-2.179,12.329,12.329,0,0,0-8.136,3.051,13.991,13.991,0,0,0-3.922,9.879,16.986,16.986,0,0,0,.872,5.085,14.7,14.7,0,0,0,3.632,5.375,10.237,10.237,0,0,0,5.666,2.615c.872,0,1.453.145,2.034.145a14.21,14.21,0,0,0,3.777-.436,7.8,7.8,0,0,0,3.2-1.889A7.076,7.076,0,0,0,268.863,311a6.03,6.03,0,0,0,1.017-1.889h.436l-.726,3.632a10.3,10.3,0,0,1-4.213,1.889,19.128,19.128,0,0,1-4.939.581Z" transform="translate(-246.2 -287.9)" fill="#fff"/>
        </g>
      </g>
    </g>
    <g id="グループ_50" data-name="グループ 50" transform="translate(140.6 7334.5)" opacity="0.484" style="mix-blend-mode: multiply;isolation: isolate">
      <g id="グループ_1-2" data-name="グループ 1" transform="translate(242.56 335.33)">
        <path id="パス_1-2" data-name="パス 1" d="M199.5,320h3.051c2.034,0,3.487.726,3.487,2.76s-1.453,2.906-3.487,2.906h-1.743v4.068H199.5V320Zm2.906,4.649c1.453,0,2.324-.581,2.324-1.889s-.872-1.743-2.324-1.743h-1.6v3.632Zm0,.581,1.017-.581,3.051,5.085h-1.453Z" transform="translate(-199.5 -319.709)" fill="#fff"/>
        <path id="パス_2-2" data-name="パス 2" d="M207.5,324.885c0-3.2,1.743-5.085,4.213-5.085s4.213,1.889,4.213,5.085-1.743,5.085-4.213,5.085S207.5,327.936,207.5,324.885Zm7.119,0c0-2.47-1.162-3.923-2.906-3.923s-2.906,1.453-2.906,3.923,1.162,4.068,2.906,4.068S214.619,327.354,214.619,324.885Z" transform="translate(-195.878 -319.8)" fill="#fff"/>
        <path id="パス_3-2" data-name="パス 3" d="M217.345,320h2.76c2.179,0,3.632.726,3.632,2.906s-1.453,3.051-3.632,3.051h-1.6v3.923H217.2v-9.734Zm2.615,4.794c1.743,0,2.47-.581,2.47-2.034s-.872-1.889-2.615-1.889h-1.453v3.923h1.6Z" transform="translate(-191.486 -319.709)" fill="#fff"/>
        <path id="パス_4-2" data-name="パス 4" d="M225.645,320h2.76c2.179,0,3.632.726,3.632,2.906s-1.453,3.051-3.632,3.051h-1.6v3.923H225.5v-9.734Zm2.76,4.794c1.743,0,2.47-.581,2.47-2.034s-.872-1.889-2.615-1.889h-1.453v3.923h1.6Z" transform="translate(-187.728 -319.709)" fill="#fff"/>
        <path id="パス_5-2" data-name="パス 5" d="M233.6,324.885c0-3.2,1.743-5.085,4.213-5.085s4.213,1.889,4.213,5.085-1.743,5.085-4.213,5.085S233.6,327.936,233.6,324.885Zm6.973,0c0-2.47-1.162-3.923-2.906-3.923s-2.906,1.453-2.906,3.923,1.162,4.068,2.906,4.068S240.573,327.354,240.573,324.885Z" transform="translate(-184.06 -319.8)" fill="#fff"/>
        <path id="パス_6-2" data-name="パス 6" d="M243.3,320h1.307l3.487,6.1,1.017,2.034h0c0-1.017-.145-2.034-.145-3.051V320h1.162v9.734h-1.307l-3.487-6.1-1.017-2.034h0c0,1.017.145,2.034.145,3.051v5.085H243.3Z" transform="translate(-179.668 -319.709)" fill="#fff"/>
        <path id="パス_7-2" data-name="パス 7" d="M252.1,324.885c0-3.2,1.889-5.085,4.5-5.085s2.179.581,2.76,1.162l-.726.872a2.438,2.438,0,0,0-2.034-.872c-2.034,0-3.2,1.453-3.2,3.923s1.162,3.923,3.2,3.923,1.307-.145,1.743-.581v-2.47h-2.034v-1.017h3.2v4.068a3.934,3.934,0,0,1-3.051,1.162c-2.615,0-4.358-1.889-4.358-5.085Z" transform="translate(-175.684 -319.8)" fill="#fff"/>
        <path id="パス_8-2" data-name="パス 8" d="M261.4,320h1.307v9.734H261.4Z" transform="translate(-171.473 -319.709)" fill="#fff"/>
      </g>
    </g>
  </g>
</svg>
