<svg xmlns="http://www.w3.org/2000/svg" xmlns:xlink="http://www.w3.org/1999/xlink" width="96" height="96" viewBox="0 0 96 96">
  <defs>
    <clipPath id="clip-path">
      <circle id="楕円形_3" data-name="楕円形 3" cx="48" cy="48" r="48" transform="translate(222 7748)" fill="#fff" stroke="#707070" stroke-width="1"/>
    </clipPath>
    <clipPath id="clip-path-2">
      <rect id="長方形_22" data-name="長方形 22" width="100" height="100" fill="none"/>
    </clipPath>
  </defs>
  <g id="マスクグループ_3" data-name="マスクグループ 3" transform="translate(-222 -7748)" clip-path="url(#clip-path)">
    <g id="グループ_54" data-name="グループ 54" transform="translate(220 7745.783)">
      <g id="グループ_53" data-name="グループ 53" transform="translate(0 1.217)" clip-path="url(#clip-path-2)">
        <path id="パス_32" data-name="パス 32" d="M77.607,100.194H22.587A22.588,22.588,0,0,1,0,77.607V22.588A22.588,22.588,0,0,1,22.587,0H77.607a22.588,22.588,0,0,1,22.587,22.588V77.607a22.587,22.587,0,0,1-22.587,22.587" transform="translate(0 -0.194)" fill="#06c755"/>
        <path id="パス_33" data-name="パス 33" d="M113.443,82.758c0-13.46-13.494-24.412-30.082-24.412S53.279,69.3,53.279,82.758c0,12.068,10.7,22.174,25.158,24.085.979.212,2.313.646,2.65,1.484a6.177,6.177,0,0,1,.1,2.72s-.353,2.123-.429,2.575c-.131.76-.6,2.975,2.606,1.622s17.324-10.2,23.635-17.465h0c4.359-4.781,6.448-9.633,6.448-15.02" transform="translate(-33.274 -37.106)" fill="#fff"/>
        <path id="パス_34" data-name="パス 34" d="M208.178,136.133h-8.452a.574.574,0,0,1-.574-.574v-.009h0V122.444h0v-.012a.574.574,0,0,1,.574-.574h8.452a.576.576,0,0,1,.574.574v2.133a.574.574,0,0,1-.574.574h-5.744v2.215h5.744a.576.576,0,0,1,.574.574v2.133a.574.574,0,0,1-.574.575h-5.744v2.215h5.744a.576.576,0,0,1,.574.574v2.133a.574.574,0,0,1-.574.574" transform="translate(-138.017 -82.708)" fill="#06c755"/>
        <path id="パス_35" data-name="パス 35" d="M97.3,136.133a.574.574,0,0,0,.574-.574v-2.133a.576.576,0,0,0-.574-.574H91.56V122.43a.576.576,0,0,0-.574-.574H88.852a.574.574,0,0,0-.574.574v13.118h0v.009a.574.574,0,0,0,.574.574H97.3Z" transform="translate(-58.405 -82.708)" fill="#06c755"/>
        <path id="パス_36" data-name="パス 36" d="M131.438,121.855H129.3a.574.574,0,0,0-.574.574v13.129a.574.574,0,0,0,.574.574h2.133a.574.574,0,0,0,.574-.574V122.429a.574.574,0,0,0-.574-.574" transform="translate(-87.451 -82.708)" fill="#06c755"/>
        <path id="パス_37" data-name="パス 37" d="M159.544,121.855H157.41a.574.574,0,0,0-.574.574v7.8l-6.007-8.112a.632.632,0,0,0-.046-.059l0,0-.035-.036-.011-.01-.031-.027-.016-.012-.03-.021-.018-.011-.032-.017-.018-.009-.034-.015-.019-.007-.035-.011-.021-.005-.034-.007-.024,0-.031,0H148.22a.574.574,0,0,0-.574.574v13.129a.574.574,0,0,0,.574.574h2.133a.574.574,0,0,0,.574-.574v-7.8l6.014,8.122a.581.581,0,0,0,.148.145l.007,0,.036.022.017.009.028.014.028.012.018.007.04.013.008,0a.585.585,0,0,0,.15.02h2.122a.574.574,0,0,0,.574-.574V122.429a.574.574,0,0,0-.574-.574" transform="translate(-101.033 -82.708)" fill="#06c755"/>
      </g>
    </g>
  </g>
</svg>
