<svg xmlns="http://www.w3.org/2000/svg" width="73" height="40.21" viewBox="0 0 73 40.21">
  <g id="グループ_158" data-name="グループ 158" transform="translate(-758.5 -40)">
    <g id="グループ_63" data-name="グループ 63" transform="translate(-393.5 1968)">
      <line id="線_5" data-name="線 5" x2="70" transform="translate(1153.5 -1926.5)" fill="none" stroke="#2d2d2d" stroke-linecap="round" stroke-width="3"/>
      <line id="線_6" data-name="線 6" x2="54" transform="translate(1153.5 -1914.67)" fill="none" stroke="#2d2d2d" stroke-linecap="round" stroke-width="3"/>
    </g>
    <path id="パス_63" data-name="パス 63" d="M-23.13,0h2V-4.635c0-1.05-.18-2.6-.285-3.645h.06l.885,2.61L-18.75-1h1.275l1.71-4.665.9-2.61h.06c-.105,1.05-.27,2.595-.27,3.645V0h2.025V-11.1h-2.46l-1.845,5.19c-.24.69-.435,1.425-.675,2.145h-.075c-.225-.72-.435-1.455-.675-2.145l-1.89-5.19h-2.46ZM-8.82,0h6.975V-1.86H-6.6V-4.83h3.9V-6.69H-6.6V-9.255h4.59V-11.1H-8.82ZM1.9,0H4V-4.455c0-1.275-.165-2.67-.27-3.87H3.81L4.935-5.94,8.145,0h2.25V-11.1h-2.1v4.425c0,1.26.165,2.73.285,3.885H8.5l-1.11-2.4L4.17-11.1H1.9Zm17,.21c2.715,0,4.29-1.515,4.29-5.2V-11.1H21.06v6.3c0,2.31-.84,3.09-2.16,3.09s-2.1-.78-2.1-3.09v-6.3H14.58v6.105C14.58-1.3,16.2.21,18.9.21Z" transform="translate(784 80)" fill="#2d2d2d"/>
  </g>
</svg>
